<svg version="1.1" viewBox="0.0 0.0 600.0 371.0" fill="none" stroke="none" stroke-linecap="square" stroke-miterlimit="10" width="600" height="371" xmlns:xlink="http://www.w3.org/1999/xlink" xmlns="http://www.w3.org/2000/svg"><path fill="#000000" d="M0 0L600.0 0L600.0 371.0L0 371.0L0 0Z" fill-rule="nonzero"/><path stroke="#cccccc" stroke-width="1.0" stroke-linecap="butt" d="M84.5 300.5L581.5 300.5" fill-rule="nonzero"/><path stroke="#333333" stroke-width="1.0" stroke-linecap="butt" d="M84.5 258.5L581.5 258.5" fill-rule="nonzero"/><path stroke="#333333" stroke-width="1.0" stroke-linecap="butt" d="M84.5 215.5L581.5 215.5" fill-rule="nonzero"/><path stroke="#333333" stroke-width="1.0" stroke-linecap="butt" d="M84.5 173.5L581.5 173.5" fill-rule="nonzero"/><path stroke="#333333" stroke-width="1.0" stroke-linecap="butt" d="M84.5 130.5L581.5 130.5" fill-rule="nonzero"/><path stroke="#333333" stroke-width="1.0" stroke-linecap="butt" d="M84.5 88.5L581.5 88.5" fill-rule="nonzero"/><clipPath id="id_0"><path d="M84.55 88.28333L581.45 88.28333L581.45 300.45L84.55 300.45L84.55 88.28333Z" clip-rule="nonzero"/></clipPath><path stroke="#000000" stroke-width="2.0" stroke-linecap="butt" stroke-opacity="0.0" clip-path="url(#id_0)" d="M226.0 300.0L159.0 300.0L159.0 281.0C159.0 279.89542 159.89543 279.0 161.0 279.0L224.0 279.0C225.10457 279.0 226.0 279.89542 226.0 281.0Z" fill-rule="nonzero"/><path fill="#4285f4" clip-path="url(#id_0)" d="M226.0 300.0L159.0 300.0L159.0 281.0C159.0 279.89542 159.89543 279.0 161.0 279.0L224.0 279.0C225.10457 279.0 226.0 279.89542 226.0 281.0Z" fill-rule="nonzero"/><path stroke="#000000" stroke-width="2.0" stroke-linecap="butt" stroke-opacity="0.0" clip-path="url(#id_0)" d="M438.0 300.0L371.0 300.0L371.0 94.0C371.0 92.89543 371.89542 92.0 373.0 92.0L436.0 92.0C437.10458 92.0 438.0 92.89543 438.0 94.0Z" fill-rule="nonzero"/><path fill="#4285f4" clip-path="url(#id_0)" d="M438.0 300.0L371.0 300.0L371.0 94.0C371.0 92.89543 371.89542 92.0 373.0 92.0L436.0 92.0C437.10458 92.0 438.0 92.89543 438.0 94.0Z" fill-rule="nonzero"/><path stroke="#000000" stroke-width="2.0" stroke-linecap="butt" stroke-opacity="0.0" clip-path="url(#id_0)" d="M295.0 300.0L228.0 300.0L228.0 295.0C228.0 293.89542 228.89543 293.0 230.0 293.0L293.0 293.0C294.10458 293.0 295.0 293.89542 295.0 295.0Z" fill-rule="nonzero"/><path fill="#ea4335" clip-path="url(#id_0)" d="M295.0 300.0L228.0 300.0L228.0 295.0C228.0 293.89542 228.89543 293.0 230.0 293.0L293.0 293.0C294.10458 293.0 295.0 293.89542 295.0 295.0Z" fill-rule="nonzero"/><path stroke="#000000" stroke-width="2.0" stroke-linecap="butt" stroke-opacity="0.0" clip-path="url(#id_0)" d="M507.0 300.0L440.0 300.0L440.0 244.0C440.0 242.89543 440.89542 242.0 442.0 242.0L505.0 242.0C506.10458 242.0 507.0 242.89543 507.0 244.0Z" fill-rule="nonzero"/><path fill="#ea4335" clip-path="url(#id_0)" d="M507.0 300.0L440.0 300.0L440.0 244.0C440.0 242.89543 440.89542 242.0 442.0 242.0L505.0 242.0C506.10458 242.0 507.0 242.89543 507.0 244.0Z" fill-rule="nonzero"/><path fill="#ffffff" d="M291.04688 346.6844L292.10938 346.59064Q292.1875 347.2469 292.46875 347.65314Q292.75 348.0594 293.32812 348.325Q293.92188 348.575 294.65625 348.575Q295.29688 348.575 295.79688 348.3875Q296.29688 348.1844 296.53125 347.85626Q296.78125 347.5125 296.78125 347.1219Q296.78125 346.71564 296.54688 346.41876Q296.3125 346.10626 295.78125 345.90314Q295.42188 345.7625 294.23438 345.48126Q293.0625 345.2 292.59375 344.95Q291.96875 344.6219 291.67188 344.15314Q291.375 343.66876 291.375 343.075Q291.375 342.4344 291.73438 341.8719Q292.10938 341.29376 292.8125 341.0125Q293.53125 340.71564 294.39062 340.71564Q295.34375 340.71564 296.07812 341.02814Q296.8125 341.325 297.20312 341.9344Q297.59375 342.52814 297.625 343.27814L296.53125 343.35626Q296.4375 342.54376 295.92188 342.1375Q295.42188 341.71564 294.4375 341.71564Q293.40625 341.71564 292.9375 342.09064Q292.46875 342.46564 292.46875 342.9969Q292.46875 343.46564 292.79688 343.7625Q293.125 344.0594 294.5 344.3719Q295.89062 344.6844 296.40625 344.91876Q297.15625 345.27814 297.51562 345.8094Q297.875 346.325 297.875 347.02814Q297.875 347.71564 297.48438 348.325Q297.09375 348.91876 296.35938 349.2625Q295.625 349.59064 294.70312 349.59064Q293.53125 349.59064 292.73438 349.2625Q291.95312 348.91876 291.5 348.23126Q291.0625 347.54376 291.04688 346.6844ZM299.29688 342.075L299.29688 340.85626L300.35938 340.85626L300.35938 342.075L299.29688 342.075ZM299.29688 349.45L299.29688 343.23126L300.35938 343.23126L300.35938 349.45L299.29688 349.45ZM301.73438 349.45L301.73438 348.59064L305.70312 344.04376Q305.01562 344.075 304.5 344.075L301.96875 344.075L301.96875 343.23126L307.0625 343.23126L307.0625 343.91876L303.6875 347.8719L303.03125 348.59064Q303.75 348.54376 304.35938 348.54376L307.25 348.54376L307.25 349.45L301.73438 349.45ZM311.54688 347.45L312.64062 347.575Q312.39062 348.52814 311.6875 349.0594Q310.98438 349.59064 309.90625 349.59064Q308.54688 349.59064 307.73438 348.7469Q306.9375 347.90314 306.9375 346.3875Q306.9375 344.825 307.75 343.96564Q308.5625 343.09064 309.84375 343.09064Q311.09375 343.09064 311.875 343.9344Q312.67188 344.77814 312.67188 346.325Q312.67188 346.41876 312.67188 346.60626L308.03125 346.60626Q308.09375 347.6375 308.60938 348.1844Q309.125 348.71564 309.90625 348.71564Q310.48438 348.71564 310.89062 348.41876Q311.3125 348.10626 311.54688 347.45ZM308.09375 345.7469L311.5625 345.7469Q311.5 344.95 311.17188 344.5594Q310.65625 343.95 309.85938 343.95Q309.125 343.95 308.625 344.4344Q308.14062 344.91876 308.09375 345.7469ZM316.90625 346.34064Q316.90625 344.60626 317.85938 343.77814Q318.65625 343.09064 319.8125 343.09064Q321.09375 343.09064 321.90625 343.9344Q322.73438 344.7625 322.73438 346.2469Q322.73438 347.45 322.375 348.1375Q322.01562 348.825 321.3125 349.21564Q320.625 349.59064 319.8125 349.59064Q318.51562 349.59064 317.70312 348.7625Q316.90625 347.91876 316.90625 346.34064ZM317.98438 346.34064Q317.98438 347.52814 318.5 348.1219Q319.03125 348.71564 319.8125 348.71564Q320.60938 348.71564 321.125 348.1219Q321.64062 347.52814 321.64062 346.3094Q321.64062 345.15314 321.10938 344.5594Q320.59375 343.96564 319.8125 343.96564Q319.03125 343.96564 318.5 344.5594Q317.98438 345.1375 317.98438 346.34064ZM324.54688 349.45L324.54688 344.04376L323.60938 344.04376L323.60938 343.23126L324.54688 343.23126L324.54688 342.5594Q324.54688 341.9344 324.65625 341.6375Q324.8125 341.21564 325.1875 340.96564Q325.57812 340.71564 326.26562 340.71564Q326.71875 340.71564 327.25 340.825L327.09375 341.73126Q326.76562 341.6844 326.46875 341.6844Q325.98438 341.6844 325.78125 341.8875Q325.59375 342.09064 325.59375 342.65314L325.59375 343.23126L326.8125 343.23126L326.8125 344.04376L325.59375 344.04376L325.59375 349.45L324.54688 349.45ZM330.39062 349.45L330.39062 340.85626L332.10938 340.85626L334.14062 346.9344Q334.42188 347.79376 334.54688 348.21564Q334.6875 347.7469 335.0 346.84064L337.0625 340.85626L338.59375 340.85626L338.59375 349.45L337.5 349.45L337.5 342.2625L335.0 349.45L333.96875 349.45L331.48438 342.1375L331.48438 349.45L330.39062 349.45ZM343.35938 348.6844Q342.76562 349.1844 342.21875 349.3875Q341.6875 349.59064 341.0625 349.59064Q340.03125 349.59064 339.48438 349.09064Q338.9375 348.59064 338.9375 347.8094Q338.9375 347.35626 339.14062 346.98126Q339.34375 346.59064 339.6875 346.3719Q340.03125 346.1375 340.45312 346.02814Q340.75 345.9344 341.39062 345.85626Q342.65625 345.71564 343.26562 345.4969Q343.26562 345.27814 343.26562 345.23126Q343.26562 344.575 342.96875 344.3094Q342.5625 343.96564 341.76562 343.96564Q341.03125 343.96564 340.67188 344.23126Q340.3125 344.48126 340.14062 345.1375L339.10938 344.9969Q339.25 344.34064 339.57812 343.9344Q339.90625 343.52814 340.51562 343.3094Q341.125 343.09064 341.92188 343.09064Q342.71875 343.09064 343.21875 343.27814Q343.71875 343.46564 343.95312 343.7469Q344.1875 344.02814 344.28125 344.46564Q344.32812 344.73126 344.32812 345.4344L344.32812 346.84064Q344.32812 348.3094 344.39062 348.7Q344.46875 349.09064 344.67188 349.45L343.5625 349.45Q343.40625 349.1219 343.35938 348.6844ZM343.26562 346.325Q342.6875 346.5594 341.54688 346.73126Q340.89062 346.825 340.625 346.95Q340.35938 347.0594 340.20312 347.27814Q340.0625 347.4969 340.0625 347.77814Q340.0625 348.2 340.375 348.48126Q340.70312 348.7625 341.3125 348.7625Q341.92188 348.7625 342.39062 348.4969Q342.875 348.23126 343.09375 347.7625Q343.26562 347.40314 343.26562 346.71564L343.26562 346.325ZM348.59375 348.5125L348.75 349.4344Q348.29688 349.52814 347.95312 349.52814Q347.375 349.52814 347.0625 349.35626Q346.75 349.16876 346.60938 348.8719Q346.48438 348.575 346.48438 347.6219L346.48438 344.04376L345.71875 344.04376L345.71875 343.23126L346.48438 343.23126L346.48438 341.6844L347.53125 341.0594L347.53125 343.23126L348.59375 343.23126L348.59375 344.04376L347.53125 344.04376L347.53125 347.6844Q347.53125 348.1375 347.57812 348.2625Q347.64062 348.3875 347.76562 348.46564Q347.89062 348.54376 348.125 348.54376Q348.3125 348.54376 348.59375 348.5125ZM349.28125 349.45L349.28125 343.23126L350.23438 343.23126L350.23438 344.16876Q350.59375 343.5125 350.89062 343.3094Q351.20312 343.09064 351.57812 343.09064Q352.10938 343.09064 352.65625 343.41876L352.29688 344.40314Q351.90625 344.16876 351.53125 344.16876Q351.17188 344.16876 350.89062 344.3875Q350.625 344.59064 350.51562 344.96564Q350.32812 345.52814 350.32812 346.1844L350.32812 349.45L349.28125 349.45ZM353.29688 342.075L353.29688 340.85626L354.35938 340.85626L354.35938 342.075L353.29688 342.075ZM353.29688 349.45L353.29688 343.23126L354.35938 343.23126L354.35938 349.45L353.29688 349.45ZM360.35938 347.16876L361.39062 347.3094Q361.21875 348.3719 360.51562 348.98126Q359.8125 349.59064 358.79688 349.59064Q357.51562 349.59064 356.73438 348.7625Q355.96875 347.91876 355.96875 346.35626Q355.96875 345.35626 356.29688 344.60626Q356.64062 343.84064 357.3125 343.46564Q358.0 343.09064 358.8125 343.09064Q359.8125 343.09064 360.45312 343.60626Q361.10938 344.10626 361.29688 345.0594L360.26562 345.21564Q360.125 344.59064 359.75 344.27814Q359.375 343.95 358.84375 343.95Q358.04688 343.95 357.54688 344.52814Q357.04688 345.09064 357.04688 346.325Q357.04688 347.59064 357.53125 348.15314Q358.01562 348.71564 358.78125 348.71564Q359.40625 348.71564 359.8125 348.34064Q360.23438 347.96564 360.35938 347.16876ZM366.54688 347.45L367.64062 347.575Q367.39062 348.52814 366.6875 349.0594Q365.98438 349.59064 364.90625 349.59064Q363.54688 349.59064 362.73438 348.7469Q361.9375 347.90314 361.9375 346.3875Q361.9375 344.825 362.75 343.96564Q363.5625 343.09064 364.84375 343.09064Q366.09375 343.09064 366.875 343.9344Q367.67188 344.77814 367.67188 346.325Q367.67188 346.41876 367.67188 346.60626L363.03125 346.60626Q363.09375 347.6375 363.60938 348.1844Q364.125 348.71564 364.90625 348.71564Q365.48438 348.71564 365.89062 348.41876Q366.3125 348.10626 366.54688 347.45ZM363.09375 345.7469L366.5625 345.7469Q366.5 344.95 366.17188 344.5594Q365.65625 343.95 364.85938 343.95Q364.125 343.95 363.625 344.4344Q363.14062 344.91876 363.09375 345.7469ZM368.875 347.59064L369.90625 347.4344Q370.0 348.0594 370.39062 348.3875Q370.79688 348.71564 371.53125 348.71564Q372.25 348.71564 372.59375 348.4344Q372.95312 348.1375 372.95312 347.73126Q372.95312 347.3719 372.64062 347.16876Q372.42188 347.02814 371.5625 346.8094Q370.40625 346.5125 369.95312 346.3094Q369.51562 346.09064 369.28125 345.71564Q369.04688 345.34064 369.04688 344.8719Q369.04688 344.46564 369.23438 344.10626Q369.42188 343.7469 369.75 343.5125Q370.0 343.34064 370.42188 343.21564Q370.84375 343.09064 371.34375 343.09064Q372.0625 343.09064 372.60938 343.3094Q373.17188 343.5125 373.4375 343.8719Q373.70312 344.23126 373.79688 344.825L372.76562 344.96564Q372.70312 344.4969 372.35938 344.23126Q372.03125 343.95 371.40625 343.95Q370.6875 343.95 370.375 344.2Q370.0625 344.4344 370.0625 344.7625Q370.0625 344.96564 370.1875 345.1219Q370.32812 345.29376 370.59375 345.40314Q370.75 345.46564 371.53125 345.66876Q372.65625 345.98126 373.09375 346.16876Q373.53125 346.35626 373.78125 346.71564Q374.03125 347.075 374.03125 347.6219Q374.03125 348.15314 373.71875 348.6219Q373.42188 349.075 372.84375 349.34064Q372.26562 349.59064 371.53125 349.59064Q370.3125 349.59064 369.67188 349.09064Q369.04688 348.575 368.875 347.59064Z" fill-rule="nonzero"/><path fill="#ffffff" d="M26.534388 256.30417L26.831263 255.17917Q28.221888 255.53854 28.956263 256.46042Q29.690638 257.3823 29.690638 258.72604Q29.690638 260.11667 29.128138 260.99167Q28.565638 261.86667 27.503138 262.3198Q26.425013 262.77292 25.190638 262.77292Q23.846888 262.77292 22.846888 262.2573Q21.846888 261.74167 21.331263 260.80417Q20.815638 259.85104 20.815638 258.71042Q20.815638 257.42917 21.471888 256.55417Q22.128138 255.66354 23.315638 255.3198L23.581263 256.4448Q22.643763 256.74167 22.221888 257.3198Q21.784388 257.8823 21.784388 258.74167Q21.784388 259.72604 22.268763 260.39792Q22.737513 261.05417 23.534388 261.33542Q24.331263 261.60104 25.190638 261.60104Q26.284388 261.60104 27.096888 261.28854Q27.909388 260.96042 28.315638 260.28854Q28.721888 259.61667 28.721888 258.8198Q28.721888 257.86667 28.175013 257.21042Q27.628138 256.53854 26.534388 256.30417ZM26.440638 253.96042Q24.706263 253.96042 23.878138 253.0073Q23.190638 252.21042 23.190638 251.05417Q23.190638 249.77292 24.034388 248.96042Q24.862513 248.1323 26.346888 248.1323Q27.550013 248.1323 28.237513 248.49167Q28.925013 248.85104 29.315638 249.55417Q29.690638 250.24167 29.690638 251.05417Q29.690638 252.35104 28.862513 253.16354Q28.018763 253.96042 26.440638 253.96042ZM26.440638 252.8823Q27.628138 252.8823 28.221888 252.36667Q28.815638 251.83542 28.815638 251.05417Q28.815638 250.2573 28.221888 249.74167Q27.628138 249.22604 26.409388 249.22604Q25.253138 249.22604 24.659388 249.7573Q24.065638 250.27292 24.065638 251.05417Q24.065638 251.83542 24.659388 252.36667Q25.237513 252.8823 26.440638 252.8823ZM29.550013 246.5698L23.331263 246.5698L23.331263 245.6323L24.206263 245.6323Q23.737513 245.33542 23.471888 244.85104Q23.190638 244.36667 23.190638 243.74167Q23.190638 243.05417 23.471888 242.61667Q23.753138 242.16354 24.268763 241.99167Q23.190638 241.24167 23.190638 240.0698Q23.190638 239.1323 23.706263 238.64792Q24.206263 238.14792 25.284388 238.14792L29.550013 238.14792L29.550013 239.1948L25.628138 239.1948Q25.003138 239.1948 24.721888 239.30417Q24.440638 239.39792 24.268763 239.66354Q24.096888 239.92917 24.096888 240.30417Q24.096888 240.96042 24.534388 241.39792Q24.971888 241.8198 25.940638 241.8198L29.550013 241.8198L29.550013 242.8823L25.503138 242.8823Q24.800013 242.8823 24.456263 243.14792Q24.096888 243.39792 24.096888 243.97604Q24.096888 244.42917 24.331263 244.80417Q24.565638 245.17917 25.018763 245.35104Q25.471888 245.52292 26.315638 245.52292L29.550013 245.52292L29.550013 246.5698ZM31.940638 235.5698L23.331263 235.5698L23.331263 234.61667L24.128138 234.61667Q23.659388 234.27292 23.425013 233.85104Q23.190638 233.41354 23.190638 232.80417Q23.190638 232.0073 23.596888 231.39792Q24.003138 230.78854 24.753138 230.49167Q25.503138 230.17917 26.393763 230.17917Q27.346888 230.17917 28.112513 230.52292Q28.878138 230.85104 29.284388 231.5073Q29.690638 232.16354 29.690638 232.8823Q29.690638 233.41354 29.471888 233.83542Q29.237513 234.2573 28.909388 234.52292L31.940638 234.52292L31.940638 235.5698ZM26.471888 234.61667Q27.675013 234.61667 28.253138 234.1323Q28.815638 233.64792 28.815638 232.96042Q28.815638 232.2573 28.221888 231.7573Q27.628138 231.2573 26.378138 231.2573Q25.190638 231.2573 24.612513 231.74167Q24.018763 232.22604 24.018763 232.91354Q24.018763 233.58542 24.643763 234.10104Q25.268763 234.61667 26.471888 234.61667ZM29.550013 224.49167L28.628138 224.49167Q29.690638 225.22604 29.690638 226.47604Q29.690638 227.02292 29.487513 227.5073Q29.268763 227.97604 28.956263 228.21042Q28.628138 228.4448 28.159388 228.53854Q27.862513 228.60104 27.175013 228.60104L23.331263 228.60104L23.331263 227.53854L26.784388 227.53854Q27.596888 227.53854 27.893763 227.47604Q28.300013 227.3823 28.550013 227.0698Q28.784388 226.74167 28.784388 226.2573Q28.784388 225.78854 28.550013 225.3823Q28.300013 224.96042 27.878138 224.78854Q27.456263 224.60104 26.659388 224.60104L23.331263 224.60104L23.331263 223.55417L29.550013 223.55417L29.550013 224.49167ZM28.612513 219.27292L29.534388 219.11667Q29.628138 219.5698 29.628138 219.91354Q29.628138 220.49167 29.456263 220.80417Q29.268763 221.11667 28.971888 221.2573Q28.675013 221.3823 27.721888 221.3823L24.143763 221.3823L24.143763 222.14792L23.331263 222.14792L23.331263 221.3823L21.784388 221.3823L21.159388 220.33542L23.331263 220.33542L23.331263 219.27292L24.143763 219.27292L24.143763 220.33542L27.784388 220.33542Q28.237513 220.33542 28.362513 220.28854Q28.487513 220.22604 28.565638 220.10104Q28.643763 219.97604 28.643763 219.74167Q28.643763 219.55417 28.612513 219.27292ZM28.784388 214.5073Q29.284388 215.10104 29.487513 215.64792Q29.690638 216.17917 29.690638 216.80417Q29.690638 217.83542 29.190638 218.3823Q28.690638 218.92917 27.909388 218.92917Q27.456263 218.92917 27.081263 218.72604Q26.690638 218.52292 26.471888 218.17917Q26.237513 217.83542 26.128138 217.41354Q26.034388 217.11667 25.956263 216.47604Q25.815638 215.21042 25.596888 214.60104Q25.378138 214.60104 25.331263 214.60104Q24.675013 214.60104 24.409388 214.89792Q24.065638 215.30417 24.065638 216.10104Q24.065638 216.83542 24.331263 217.1948Q24.581263 217.55417 25.237513 217.72604L25.096888 218.7573Q24.440638 218.61667 24.034388 218.28854Q23.628138 217.96042 23.409388 217.35104Q23.190638 216.74167 23.190638 215.9448Q23.190638 215.14792 23.378138 214.64792Q23.565638 214.14792 23.846888 213.91354Q24.128138 213.67917 24.565638 213.58542Q24.831263 213.53854 25.534388 213.53854L26.940638 213.53854Q28.409388 213.53854 28.800013 213.47604Q29.190638 213.39792 29.550013 213.1948L29.550013 214.30417Q29.221888 214.46042 28.784388 214.5073ZM26.425013 214.60104Q26.659388 215.17917 26.831263 216.3198Q26.925013 216.97604 27.050013 217.24167Q27.159388 217.5073 27.378138 217.66354Q27.596888 217.80417 27.878138 217.80417Q28.300013 217.80417 28.581263 217.49167Q28.862513 217.16354 28.862513 216.55417Q28.862513 215.9448 28.596888 215.47604Q28.331263 214.99167 27.862513 214.77292Q27.503138 214.60104 26.815638 214.60104L26.425013 214.60104ZM28.612513 209.27292L29.534388 209.11667Q29.628138 209.5698 29.628138 209.91354Q29.628138 210.49167 29.456263 210.80417Q29.268763 211.11667 28.971888 211.2573Q28.675013 211.3823 27.721888 211.3823L24.143763 211.3823L24.143763 212.14792L23.331263 212.14792L23.331263 211.3823L21.784388 211.3823L21.159388 210.33542L23.331263 210.33542L23.331263 209.27292L24.143763 209.27292L24.143763 210.33542L27.784388 210.33542Q28.237513 210.33542 28.362513 210.28854Q28.487513 210.22604 28.565638 210.10104Q28.643763 209.97604 28.643763 209.74167Q28.643763 209.55417 28.612513 209.27292ZM22.175013 208.5698L20.956263 208.5698L20.956263 207.5073L22.175013 207.5073L22.175013 208.5698ZM29.550013 208.5698L23.331263 208.5698L23.331263 207.5073L29.550013 207.5073L29.550013 208.5698ZM26.440638 205.96042Q24.706263 205.96042 23.878138 205.0073Q23.190638 204.21042 23.190638 203.05417Q23.190638 201.77292 24.034388 200.96042Q24.862513 200.1323 26.346888 200.1323Q27.550013 200.1323 28.237513 200.49167Q28.925013 200.85104 29.315638 201.55417Q29.690638 202.24167 29.690638 203.05417Q29.690638 204.35104 28.862513 205.16354Q28.018763 205.96042 26.440638 205.96042ZM26.440638 204.8823Q27.628138 204.8823 28.221888 204.36667Q28.815638 203.83542 28.815638 203.05417Q28.815638 202.2573 28.221888 201.74167Q27.628138 201.22604 26.409388 201.22604Q25.253138 201.22604 24.659388 201.7573Q24.065638 202.27292 24.065638 203.05417Q24.065638 203.83542 24.659388 204.36667Q25.237513 204.8823 26.440638 204.8823ZM29.550013 198.5698L23.331263 198.5698L23.331263 197.6323L24.206263 197.6323Q23.190638 196.9448 23.190638 195.64792Q23.190638 195.08542 23.393763 194.61667Q23.596888 194.1323 23.925013 193.89792Q24.253138 193.66354 24.690638 193.5698Q24.987513 193.52292 25.721888 193.52292L29.550013 193.52292L29.550013 194.5698L25.768763 194.5698Q25.112513 194.5698 24.800013 194.6948Q24.487513 194.8198 24.300013 195.1323Q24.096888 195.4448 24.096888 195.86667Q24.096888 196.53854 24.534388 197.03854Q24.956263 197.52292 26.143763 197.52292L29.550013 197.52292L29.550013 198.5698ZM28.612513 186.27292L29.534388 186.11667Q29.628138 186.5698 29.628138 186.91354Q29.628138 187.49167 29.456263 187.80417Q29.268763 188.11667 28.971888 188.2573Q28.675013 188.3823 27.721888 188.3823L24.143763 188.3823L24.143763 189.14792L23.331263 189.14792L23.331263 188.3823L21.784388 188.3823L21.159388 187.33542L23.331263 187.33542L23.331263 186.27292L24.143763 186.27292L24.143763 187.33542L27.784388 187.33542Q28.237513 187.33542 28.362513 187.28854Q28.487513 187.22604 28.565638 187.10104Q28.643763 186.97604 28.643763 186.74167Q28.643763 186.55417 28.612513 186.27292ZM22.175013 185.5698L20.956263 185.5698L20.956263 184.5073L22.175013 184.5073L22.175013 185.5698ZM29.550013 185.5698L23.331263 185.5698L23.331263 184.5073L29.550013 184.5073L29.550013 185.5698ZM29.550013 182.5698L23.331263 182.5698L23.331263 181.6323L24.206263 181.6323Q23.737513 181.33542 23.471888 180.85104Q23.190638 180.36667 23.190638 179.74167Q23.190638 179.05417 23.471888 178.61667Q23.753138 178.16354 24.268763 177.99167Q23.190638 177.24167 23.190638 176.0698Q23.190638 175.1323 23.706263 174.64792Q24.206263 174.14792 25.284388 174.14792L29.550013 174.14792L29.550013 175.1948L25.628138 175.1948Q25.003138 175.1948 24.721888 175.30417Q24.440638 175.39792 24.268763 175.66354Q24.096888 175.92917 24.096888 176.30417Q24.096888 176.96042 24.534388 177.39792Q24.971888 177.8198 25.940638 177.8198L29.550013 177.8198L29.550013 178.8823L25.503138 178.8823Q24.800013 178.8823 24.456263 179.14792Q24.096888 179.39792 24.096888 179.97604Q24.096888 180.42917 24.331263 180.80417Q24.565638 181.17917 25.018763 181.35104Q25.471888 181.52292 26.315638 181.52292L29.550013 181.52292L29.550013 182.5698ZM27.550013 167.3198L27.675013 166.22604Q28.628138 166.47604 29.159388 167.17917Q29.690638 167.8823 29.690638 168.96042Q29.690638 170.3198 28.846888 171.1323Q28.003138 171.92917 26.487513 171.92917Q24.925013 171.92917 24.065638 171.11667Q23.190638 170.30417 23.190638 169.02292Q23.190638 167.77292 24.034388 166.99167Q24.878138 166.1948 26.425013 166.1948Q26.518763 166.1948 26.706263 166.1948L26.706263 170.83542Q27.737513 170.77292 28.284388 170.2573Q28.815638 169.74167 28.815638 168.96042Q28.815638 168.3823 28.518763 167.97604Q28.206263 167.55417 27.550013 167.3198ZM25.846888 170.77292L25.846888 167.30417Q25.050013 167.36667 24.659388 167.6948Q24.050013 168.21042 24.050013 169.0073Q24.050013 169.74167 24.534388 170.24167Q25.018763 170.72604 25.846888 170.77292ZM31.940638 161.55417L20.956263 161.55417L20.956263 159.22604L21.831263 159.22604L21.831263 160.49167L31.065638 160.49167L31.065638 159.22604L31.940638 159.22604L31.940638 161.55417ZM29.550013 158.5698L23.331263 158.5698L23.331263 157.6323L24.206263 157.6323Q23.737513 157.33542 23.471888 156.85104Q23.190638 156.36667 23.190638 155.74167Q23.190638 155.05417 23.471888 154.61667Q23.753138 154.16354 24.268763 153.99167Q23.190638 153.24167 23.190638 152.0698Q23.190638 151.1323 23.706263 150.64792Q24.206263 150.14792 25.284388 150.14792L29.550013 150.14792L29.550013 151.1948L25.628138 151.1948Q25.003138 151.1948 24.721888 151.30417Q24.440638 151.39792 24.268763 151.66354Q24.096888 151.92917 24.096888 152.30417Q24.096888 152.96042 24.534388 153.39792Q24.971888 153.8198 25.940638 153.8198L29.550013 153.8198L29.550013 154.8823L25.503138 154.8823Q24.800013 154.8823 24.456263 155.14792Q24.096888 155.39792 24.096888 155.97604Q24.096888 156.42917 24.331263 156.80417Q24.565638 157.17917 25.018763 157.35104Q25.471888 157.52292 26.315638 157.52292L29.550013 157.52292L29.550013 158.5698ZM27.690638 147.99167L27.534388 146.96042Q28.159388 146.86667 28.487513 146.47604Q28.815638 146.0698 28.815638 145.33542Q28.815638 144.61667 28.534388 144.27292Q28.237513 143.91354 27.831263 143.91354Q27.471888 143.91354 27.268763 144.22604Q27.128138 144.4448 26.909388 145.30417Q26.612513 146.46042 26.409388 146.91354Q26.190638 147.35104 25.815638 147.58542Q25.440638 147.8198 24.971888 147.8198Q24.565638 147.8198 24.206263 147.6323Q23.846888 147.4448 23.612513 147.11667Q23.440638 146.86667 23.315638 146.4448Q23.190638 146.02292 23.190638 145.52292Q23.190638 144.80417 23.409388 144.2573Q23.612513 143.6948 23.971888 143.42917Q24.331263 143.16354 24.925013 143.0698L25.065638 144.10104Q24.596888 144.16354 24.331263 144.5073Q24.050013 144.83542 24.050013 145.46042Q24.050013 146.17917 24.300013 146.49167Q24.534388 146.80417 24.862513 146.80417Q25.065638 146.80417 25.221888 146.67917Q25.393763 146.53854 25.503138 146.27292Q25.565638 146.11667 25.768763 145.33542Q26.081263 144.21042 26.268763 143.77292Q26.456263 143.33542 26.815638 143.08542Q27.175013 142.83542 27.721888 142.83542Q28.253138 142.83542 28.721888 143.14792Q29.175013 143.4448 29.440638 144.02292Q29.690638 144.60104 29.690638 145.33542Q29.690638 146.55417 29.190638 147.1948Q28.675013 147.8198 27.690638 147.99167ZM31.940638 138.80417L31.940638 141.1323L31.065638 141.1323L31.065638 139.86667L21.831263 139.86667L21.831263 141.1323L20.956263 141.1323L20.956263 138.80417L31.940638 138.80417Z" fill-rule="nonzero"/><path fill="#ffffff" d="M72.05 300.21564Q72.05 298.6844 72.3625 297.7625Q72.675 296.825 73.28438 296.325Q73.90938 295.825 74.84688 295.825Q75.53438 295.825 76.05 296.10626Q76.58125 296.3875 76.925 296.91876Q77.26875 297.4344 77.45625 298.1844Q77.64375 298.9344 77.64375 300.21564Q77.64375 301.73126 77.33125 302.65314Q77.03438 303.575 76.40938 304.09064Q75.8 304.59064 74.84688 304.59064Q73.6125 304.59064 72.89375 303.7Q72.05 302.6375 72.05 300.21564ZM73.12813 300.21564Q73.12813 302.325 73.62813 303.02814Q74.12813 303.73126 74.84688 303.73126Q75.58125 303.73126 76.06563 303.02814Q76.56563 302.325 76.56563 300.21564Q76.56563 298.09064 76.06563 297.40314Q75.58125 296.7 74.83125 296.7Q74.1125 296.7 73.675 297.3094Q73.12813 298.09064 73.12813 300.21564Z" fill-rule="nonzero"/><path fill="#ffffff" d="M58.05 259.76666L59.159374 259.6729Q59.284374 260.4854 59.721874 260.89166Q60.175 261.2979 60.815624 261.2979Q61.565624 261.2979 62.096874 260.7198Q62.628124 260.14166 62.628124 259.20416Q62.628124 258.2979 62.1125 257.7823Q61.6125 257.25104 60.784374 257.25104Q60.284374 257.25104 59.8625 257.4854Q59.45625 257.7198 59.221874 258.07916L58.2375 257.95416L59.065624 253.54791L63.346874 253.54791L63.346874 254.54791L59.909374 254.54791L59.45625 256.8604Q60.221874 256.31354 61.065624 256.31354Q62.190624 256.31354 62.95625 257.0948Q63.7375 257.87604 63.7375 259.1104Q63.7375 260.26666 63.065624 261.12604Q62.2375 262.1573 60.815624 262.1573Q59.64375 262.1573 58.89375 261.50104Q58.159374 260.8448 58.05 259.76666ZM65.05 257.7823Q65.05 256.25104 65.3625 255.32916Q65.675 254.39166 66.28438 253.89166Q66.90938 253.39166 67.84688 253.39166Q68.53438 253.39166 69.05 253.67291Q69.58125 253.95416 69.925 254.48541Q70.26875 255.00104 70.45625 255.75104Q70.64375 256.50104 70.64375 257.7823Q70.64375 259.2979 70.33125 260.2198Q70.03438 261.14166 69.40938 261.6573Q68.8 262.1573 67.84688 262.1573Q66.6125 262.1573 65.89375 261.26666Q65.05 260.20416 65.05 257.7823ZM66.12813 257.7823Q66.12813 259.89166 66.62813 260.5948Q67.12813 261.2979 67.84688 261.2979Q68.58125 261.2979 69.06563 260.5948Q69.56563 259.89166 69.56563 257.7823Q69.56563 255.65729 69.06563 254.96979Q68.58125 254.26666 67.83125 254.26666Q67.1125 254.26666 66.675 254.87604Q66.12813 255.65729 66.12813 257.7823ZM72.05 257.7823Q72.05 256.25104 72.3625 255.32916Q72.675 254.39166 73.28438 253.89166Q73.90938 253.39166 74.84688 253.39166Q75.53438 253.39166 76.05 253.67291Q76.58125 253.95416 76.925 254.48541Q77.26875 255.00104 77.45625 255.75104Q77.64375 256.50104 77.64375 257.7823Q77.64375 259.2979 77.33125 260.2198Q77.03438 261.14166 76.40938 261.6573Q75.8 262.1573 74.84688 262.1573Q73.6125 262.1573 72.89375 261.26666Q72.05 260.20416 72.05 257.7823ZM73.12813 257.7823Q73.12813 259.89166 73.62813 260.5948Q74.12813 261.2979 74.84688 261.2979Q75.58125 261.2979 76.06563 260.5948Q76.56563 259.89166 76.56563 257.7823Q76.56563 255.65729 76.06563 254.96979Q75.58125 254.26666 74.83125 254.26666Q74.1125 254.26666 73.675 254.87604Q73.12813 255.65729 73.12813 257.7823Z" fill-rule="nonzero"/><path fill="#ffffff" d="M55.01875 219.58333L53.971874 219.58333L53.971874 212.86458Q53.58125 213.22395 52.95625 213.59895Q52.346874 213.95833 51.8625 214.1302L51.8625 213.11458Q52.7375 212.6927 53.39375 212.11458Q54.065624 211.52083 54.346874 210.95833L55.01875 210.95833L55.01875 219.58333ZM58.05 215.34895Q58.05 213.8177 58.3625 212.89583Q58.675 211.95833 59.284374 211.45833Q59.909374 210.95833 60.846874 210.95833Q61.534374 210.95833 62.05 211.23958Q62.58125 211.52083 62.925 212.05208Q63.26875 212.5677 63.45625 213.3177Q63.64375 214.0677 63.64375 215.34895Q63.64375 216.86458 63.33125 217.78645Q63.034374 218.70833 62.409374 219.22395Q61.8 219.72395 60.846874 219.72395Q59.6125 219.72395 58.89375 218.83333Q58.05 217.77083 58.05 215.34895ZM59.128124 215.34895Q59.128124 217.45833 59.628124 218.16145Q60.128124 218.86458 60.846874 218.86458Q61.58125 218.86458 62.065624 218.16145Q62.565624 217.45833 62.565624 215.34895Q62.565624 213.22395 62.065624 212.53645Q61.58125 211.83333 60.83125 211.83333Q60.1125 211.83333 59.675 212.4427Q59.128124 213.22395 59.128124 215.34895ZM65.05 215.34895Q65.05 213.8177 65.3625 212.89583Q65.675 211.95833 66.28438 211.45833Q66.90938 210.95833 67.84688 210.95833Q68.53438 210.95833 69.05 211.23958Q69.58125 211.52083 69.925 212.05208Q70.26875 212.5677 70.45625 213.3177Q70.64375 214.0677 70.64375 215.34895Q70.64375 216.86458 70.33125 217.78645Q70.03438 218.70833 69.40938 219.22395Q68.8 219.72395 67.84688 219.72395Q66.6125 219.72395 65.89375 218.83333Q65.05 217.77083 65.05 215.34895ZM66.12813 215.34895Q66.12813 217.45833 66.62813 218.16145Q67.12813 218.86458 67.84688 218.86458Q68.58125 218.86458 69.06563 218.16145Q69.56563 217.45833 69.56563 215.34895Q69.56563 213.22395 69.06563 212.53645Q68.58125 211.83333 67.83125 211.83333Q67.1125 211.83333 66.675 212.4427Q66.12813 213.22395 66.12813 215.34895ZM72.05 215.34895Q72.05 213.8177 72.3625 212.89583Q72.675 211.95833 73.28438 211.45833Q73.90938 210.95833 74.84688 210.95833Q75.53438 210.95833 76.05 211.23958Q76.58125 211.52083 76.925 212.05208Q77.26875 212.5677 77.45625 213.3177Q77.64375 214.0677 77.64375 215.34895Q77.64375 216.86458 77.33125 217.78645Q77.03438 218.70833 76.40938 219.22395Q75.8 219.72395 74.84688 219.72395Q73.6125 219.72395 72.89375 218.83333Q72.05 217.77083 72.05 215.34895ZM73.12813 215.34895Q73.12813 217.45833 73.62813 218.16145Q74.12813 218.86458 74.84688 218.86458Q75.58125 218.86458 76.06563 218.16145Q76.56563 217.45833 76.56563 215.34895Q76.56563 213.22395 76.06563 212.53645Q75.58125 211.83333 74.83125 211.83333Q74.1125 211.83333 73.675 212.4427Q73.12813 213.22395 73.12813 215.34895Z" fill-rule="nonzero"/><path fill="#ffffff" d="M55.01875 177.15L53.971874 177.15L53.971874 170.43124Q53.58125 170.79062 52.95625 171.16562Q52.346874 171.525 51.8625 171.69687L51.8625 170.68124Q52.7375 170.25937 53.39375 169.68124Q54.065624 169.0875 54.346874 168.525L55.01875 168.525L55.01875 177.15ZM58.05 174.9L59.159374 174.80624Q59.284374 175.61874 59.721874 176.025Q60.175 176.43124 60.815624 176.43124Q61.565624 176.43124 62.096874 175.85312Q62.628124 175.275 62.628124 174.3375Q62.628124 173.43124 62.1125 172.91562Q61.6125 172.38437 60.784374 172.38437Q60.284374 172.38437 59.8625 172.61874Q59.45625 172.85312 59.221874 173.2125L58.2375 173.0875L59.065624 168.68124L63.346874 168.68124L63.346874 169.68124L59.909374 169.68124L59.45625 171.99374Q60.221874 171.44687 61.065624 171.44687Q62.190624 171.44687 62.95625 172.22812Q63.7375 173.00937 63.7375 174.24374Q63.7375 175.4 63.065624 176.25937Q62.2375 177.29062 60.815624 177.29062Q59.64375 177.29062 58.89375 176.63437Q58.159374 175.97812 58.05 174.9ZM65.05 172.91562Q65.05 171.38437 65.3625 170.4625Q65.675 169.525 66.28438 169.025Q66.90938 168.525 67.84688 168.525Q68.53438 168.525 69.05 168.80624Q69.58125 169.0875 69.925 169.61874Q70.26875 170.13437 70.45625 170.88437Q70.64375 171.63437 70.64375 172.91562Q70.64375 174.43124 70.33125 175.35312Q70.03438 176.275 69.40938 176.79062Q68.8 177.29062 67.84688 177.29062Q66.6125 177.29062 65.89375 176.4Q65.05 175.3375 65.05 172.91562ZM66.12813 172.91562Q66.12813 175.025 66.62813 175.72812Q67.12813 176.43124 67.84688 176.43124Q68.58125 176.43124 69.06563 175.72812Q69.56563 175.025 69.56563 172.91562Q69.56563 170.79062 69.06563 170.10312Q68.58125 169.4 67.83125 169.4Q67.1125 169.4 66.675 170.00937Q66.12813 170.79062 66.12813 172.91562ZM72.05 172.91562Q72.05 171.38437 72.3625 170.4625Q72.675 169.525 73.28438 169.025Q73.90938 168.525 74.84688 168.525Q75.53438 168.525 76.05 168.80624Q76.58125 169.0875 76.925 169.61874Q77.26875 170.13437 77.45625 170.88437Q77.64375 171.63437 77.64375 172.91562Q77.64375 174.43124 77.33125 175.35312Q77.03438 176.275 76.40938 176.79062Q75.8 177.29062 74.84688 177.29062Q73.6125 177.29062 72.89375 176.4Q72.05 175.3375 72.05 172.91562ZM73.12813 172.91562Q73.12813 175.025 73.62813 175.72812Q74.12813 176.43124 74.84688 176.43124Q75.58125 176.43124 76.06563 175.72812Q76.56563 175.025 76.56563 172.91562Q76.56563 170.79062 76.06563 170.10312Q75.58125 169.4 74.83125 169.4Q74.1125 169.4 73.675 170.00937Q73.12813 170.79062 73.12813 172.91562Z" fill-rule="nonzero"/><path fill="#ffffff" d="M56.596874 133.70103L56.596874 134.71666L50.909374 134.71666Q50.909374 134.34166 51.034374 133.98228Q51.253124 133.40416 51.721874 132.84166Q52.20625 132.27916 53.1125 131.54478Q54.51875 130.38853 55.003124 129.71666Q55.503124 129.04478 55.503124 128.45103Q55.503124 127.826035 55.05 127.40416Q54.596874 126.96666 53.878124 126.96666Q53.1125 126.96666 52.659374 127.419785Q52.20625 127.87291 52.190624 128.68541L51.1125 128.57603Q51.221874 127.357285 51.940624 126.732285Q52.675 126.09166 53.909374 126.09166Q55.14375 126.09166 55.8625 126.77916Q56.58125 127.46666 56.58125 128.48228Q56.58125 128.99791 56.3625 129.49791Q56.159374 129.98228 55.659374 130.54478Q55.175 131.09166 54.05 132.04478Q53.096874 132.84166 52.815624 133.13853Q52.55 133.41978 52.378124 133.70103L56.596874 133.70103ZM58.05 130.48228Q58.05 128.95103 58.3625 128.02916Q58.675 127.09166 59.284374 126.59166Q59.909374 126.09166 60.846874 126.09166Q61.534374 126.09166 62.05 126.37291Q62.58125 126.65416 62.925 127.18541Q63.26875 127.701035 63.45625 128.45103Q63.64375 129.20103 63.64375 130.48228Q63.64375 131.99791 63.33125 132.91978Q63.034374 133.84166 62.409374 134.35728Q61.8 134.85728 60.846874 134.85728Q59.6125 134.85728 58.89375 133.96666Q58.05 132.90416 58.05 130.48228ZM59.128124 130.48228Q59.128124 132.59166 59.628124 133.29478Q60.128124 133.99791 60.846874 133.99791Q61.58125 133.99791 62.065624 133.29478Q62.565624 132.59166 62.565624 130.48228Q62.565624 128.35728 62.065624 127.669785Q61.58125 126.96666 60.83125 126.96666Q60.1125 126.96666 59.675 127.576035Q59.128124 128.35728 59.128124 130.48228ZM65.05 130.48228Q65.05 128.95103 65.3625 128.02916Q65.675 127.09166 66.28438 126.59166Q66.90938 126.09166 67.84688 126.09166Q68.53438 126.09166 69.05 126.37291Q69.58125 126.65416 69.925 127.18541Q70.26875 127.701035 70.45625 128.45103Q70.64375 129.20103 70.64375 130.48228Q70.64375 131.99791 70.33125 132.91978Q70.03438 133.84166 69.40938 134.35728Q68.8 134.85728 67.84688 134.85728Q66.6125 134.85728 65.89375 133.96666Q65.05 132.90416 65.05 130.48228ZM66.12813 130.48228Q66.12813 132.59166 66.62813 133.29478Q67.12813 133.99791 67.84688 133.99791Q68.58125 133.99791 69.06563 133.29478Q69.56563 132.59166 69.56563 130.48228Q69.56563 128.35728 69.06563 127.669785Q68.58125 126.96666 67.83125 126.96666Q67.1125 126.96666 66.675 127.576035Q66.12813 128.35728 66.12813 130.48228ZM72.05 130.48228Q72.05 128.95103 72.3625 128.02916Q72.675 127.09166 73.28438 126.59166Q73.90938 126.09166 74.84688 126.09166Q75.53438 126.09166 76.05 126.37291Q76.58125 126.65416 76.925 127.18541Q77.26875 127.701035 77.45625 128.45103Q77.64375 129.20103 77.64375 130.48228Q77.64375 131.99791 77.33125 132.91978Q77.03438 133.84166 76.40938 134.35728Q75.8 134.85728 74.84688 134.85728Q73.6125 134.85728 72.89375 133.96666Q72.05 132.90416 72.05 130.48228ZM73.12813 130.48228Q73.12813 132.59166 73.62813 133.29478Q74.12813 133.99791 74.84688 133.99791Q75.58125 133.99791 76.06563 133.29478Q76.56563 132.59166 76.56563 130.48228Q76.56563 128.35728 76.06563 127.669785Q75.58125 126.96666 74.83125 126.96666Q74.1125 126.96666 73.675 127.576035Q73.12813 128.35728 73.12813 130.48228Z" fill-rule="nonzero"/><path fill="#ffffff" d="M56.596874 91.26771L56.596874 92.28333L50.909374 92.28333Q50.909374 91.90833 51.034374 91.54896Q51.253124 90.97083 51.721874 90.40833Q52.20625 89.84583 53.1125 89.11146Q54.51875 87.95521 55.003124 87.28333Q55.503124 86.61146 55.503124 86.01771Q55.503124 85.39271 55.05 84.97083Q54.596874 84.53333 53.878124 84.53333Q53.1125 84.53333 52.659374 84.98646Q52.20625 85.43958 52.190624 86.25208L51.1125 86.14271Q51.221874 84.92396 51.940624 84.29896Q52.675 83.65833 53.909374 83.65833Q55.14375 83.65833 55.8625 84.34583Q56.58125 85.03333 56.58125 86.04896Q56.58125 86.56458 56.3625 87.06458Q56.159374 87.54896 55.659374 88.11146Q55.175 88.65833 54.05 89.61146Q53.096874 90.40833 52.815624 90.70521Q52.55 90.98646 52.378124 91.26771L56.596874 91.26771ZM58.05 90.03333L59.159374 89.93958Q59.284374 90.75208 59.721874 91.15833Q60.175 91.56458 60.815624 91.56458Q61.565624 91.56458 62.096874 90.98646Q62.628124 90.40833 62.628124 89.47083Q62.628124 88.56458 62.1125 88.04896Q61.6125 87.51771 60.784374 87.51771Q60.284374 87.51771 59.8625 87.75208Q59.45625 87.98646 59.221874 88.34583L58.2375 88.22083L59.065624 83.81458L63.346874 83.81458L63.346874 84.81458L59.909374 84.81458L59.45625 87.12708Q60.221874 86.58021 61.065624 86.58021Q62.190624 86.58021 62.95625 87.36146Q63.7375 88.14271 63.7375 89.37708Q63.7375 90.53333 63.065624 91.39271Q62.2375 92.42396 60.815624 92.42396Q59.64375 92.42396 58.89375 91.76771Q58.159374 91.11146 58.05 90.03333ZM65.05 88.04896Q65.05 86.51771 65.3625 85.59583Q65.675 84.65833 66.28438 84.15833Q66.90938 83.65833 67.84688 83.65833Q68.53438 83.65833 69.05 83.93958Q69.58125 84.22083 69.925 84.75208Q70.26875 85.26771 70.45625 86.01771Q70.64375 86.76771 70.64375 88.04896Q70.64375 89.56458 70.33125 90.48646Q70.03438 91.40833 69.40938 91.92396Q68.8 92.42396 67.84688 92.42396Q66.6125 92.42396 65.89375 91.53333Q65.05 90.47083 65.05 88.04896ZM66.12813 88.04896Q66.12813 90.15833 66.62813 90.86146Q67.12813 91.56458 67.84688 91.56458Q68.58125 91.56458 69.06563 90.86146Q69.56563 90.15833 69.56563 88.04896Q69.56563 85.92396 69.06563 85.23646Q68.58125 84.53333 67.83125 84.53333Q67.1125 84.53333 66.675 85.14271Q66.12813 85.92396 66.12813 88.04896ZM72.05 88.04896Q72.05 86.51771 72.3625 85.59583Q72.675 84.65833 73.28438 84.15833Q73.90938 83.65833 74.84688 83.65833Q75.53438 83.65833 76.05 83.93958Q76.58125 84.22083 76.925 84.75208Q77.26875 85.26771 77.45625 86.01771Q77.64375 86.76771 77.64375 88.04896Q77.64375 89.56458 77.33125 90.48646Q77.03438 91.40833 76.40938 91.92396Q75.8 92.42396 74.84688 92.42396Q73.6125 92.42396 72.89375 91.53333Q72.05 90.47083 72.05 88.04896ZM73.12813 88.04896Q73.12813 90.15833 73.62813 90.86146Q74.12813 91.56458 74.84688 91.56458Q75.58125 91.56458 76.06563 90.86146Q76.56563 90.15833 76.56563 88.04896Q76.56563 85.92396 76.06563 85.23646Q75.58125 84.53333 74.83125 84.53333Q74.1125 84.53333 73.675 85.14271Q73.12813 85.92396 73.12813 88.04896Z" fill-rule="nonzero"/><path fill="#ffffff" d="M208.24535 317.45L207.19847 317.45L207.19847 310.73126Q206.80785 311.09064 206.18285 311.46564Q205.57347 311.825 205.0891 311.9969L205.0891 310.98126Q205.9641 310.5594 206.62035 309.98126Q207.29222 309.3875 207.57347 308.825L208.24535 308.825L208.24535 317.45ZM211.2766 313.21564Q211.2766 311.6844 211.5891 310.7625Q211.9016 309.825 212.51097 309.325Q213.13597 308.825 214.07347 308.825Q214.76097 308.825 215.2766 309.10626Q215.80785 309.3875 216.1516 309.91876Q216.49535 310.4344 216.68285 311.1844Q216.87035 311.9344 216.87035 313.21564Q216.87035 314.73126 216.55785 315.65314Q216.26097 316.575 215.63597 317.09064Q215.0266 317.59064 214.07347 317.59064Q212.8391 317.59064 212.12035 316.7Q211.2766 315.6375 211.2766 313.21564ZM212.35472 313.21564Q212.35472 315.325 212.85472 316.02814Q213.35472 316.73126 214.07347 316.73126Q214.80785 316.73126 215.29222 316.02814Q215.79222 315.325 215.79222 313.21564Q215.79222 311.09064 215.29222 310.40314Q214.80785 309.7 214.05785 309.7Q213.3391 309.7 212.9016 310.3094Q212.35472 311.09064 212.35472 313.21564ZM218.2766 313.21564Q218.2766 311.6844 218.5891 310.7625Q218.9016 309.825 219.51097 309.325Q220.13597 308.825 221.07347 308.825Q221.76097 308.825 222.2766 309.10626Q222.80785 309.3875 223.1516 309.91876Q223.49535 310.4344 223.68285 311.1844Q223.87035 311.9344 223.87035 313.21564Q223.87035 314.73126 223.55785 315.65314Q223.26097 316.575 222.63597 317.09064Q222.0266 317.59064 221.07347 317.59064Q219.8391 317.59064 219.12035 316.7Q218.2766 315.6375 218.2766 313.21564ZM219.35472 313.21564Q219.35472 315.325 219.85472 316.02814Q220.35472 316.73126 221.07347 316.73126Q221.80785 316.73126 222.29222 316.02814Q222.79222 315.325 222.79222 313.21564Q222.79222 311.09064 222.29222 310.40314Q221.80785 309.7 221.05785 309.7Q220.3391 309.7 219.9016 310.3094Q219.35472 311.09064 219.35472 313.21564ZM224.87035 317.45L227.13597 314.21564L225.04222 311.23126L226.35472 311.23126L227.30785 312.6844Q227.57347 313.10626 227.74535 313.3875Q227.99535 312.9969 228.2141 312.7L229.26097 311.23126L230.5266 311.23126L228.37035 314.15314L230.68285 317.45L229.4016 317.45L228.12035 315.5125L227.7766 314.9969L226.13597 317.45L224.87035 317.45ZM234.24535 317.45L233.19847 317.45L233.19847 310.73126Q232.80785 311.09064 232.18285 311.46564Q231.57347 311.825 231.0891 311.9969L231.0891 310.98126Q231.9641 310.5594 232.62035 309.98126Q233.29222 309.3875 233.57347 308.825L234.24535 308.825L234.24535 317.45ZM237.2766 313.21564Q237.2766 311.6844 237.5891 310.7625Q237.9016 309.825 238.51097 309.325Q239.13597 308.825 240.07347 308.825Q240.76097 308.825 241.2766 309.10626Q241.80785 309.3875 242.1516 309.91876Q242.49535 310.4344 242.68285 311.1844Q242.87035 311.9344 242.87035 313.21564Q242.87035 314.73126 242.55785 315.65314Q242.26097 316.575 241.63597 317.09064Q241.0266 317.59064 240.07347 317.59064Q238.8391 317.59064 238.12035 316.7Q237.2766 315.6375 237.2766 313.21564ZM238.35472 313.21564Q238.35472 315.325 238.85472 316.02814Q239.35472 316.73126 240.07347 316.73126Q240.80785 316.73126 241.29222 316.02814Q241.79222 315.325 241.79222 313.21564Q241.79222 311.09064 241.29222 310.40314Q240.80785 309.7 240.05785 309.7Q239.3391 309.7 238.9016 310.3094Q238.35472 311.09064 238.35472 313.21564ZM244.2766 313.21564Q244.2766 311.6844 244.5891 310.7625Q244.9016 309.825 245.51097 309.325Q246.13597 308.825 247.07347 308.825Q247.76097 308.825 248.2766 309.10626Q248.80785 309.3875 249.1516 309.91876Q249.49535 310.4344 249.68285 311.1844Q249.87035 311.9344 249.87035 313.21564Q249.87035 314.73126 249.55785 315.65314Q249.26097 316.575 248.63597 317.09064Q248.0266 317.59064 247.07347 317.59064Q245.8391 317.59064 245.12035 316.7Q244.2766 315.6375 244.2766 313.21564ZM245.35472 313.21564Q245.35472 315.325 245.85472 316.02814Q246.35472 316.73126 247.07347 316.73126Q247.80785 316.73126 248.29222 316.02814Q248.79222 315.325 248.79222 313.21564Q248.79222 311.09064 248.29222 310.40314Q247.80785 309.7 247.05785 309.7Q246.3391 309.7 245.9016 310.3094Q245.35472 311.09064 245.35472 313.21564Z" fill-rule="nonzero"/><path fill="#ffffff" d="M421.2703 316.4344L421.2703 317.45L415.5828 317.45Q415.5828 317.075 415.7078 316.71564Q415.92654 316.1375 416.3953 315.575Q416.87967 315.0125 417.78592 314.27814Q419.19217 313.1219 419.67654 312.45Q420.17654 311.77814 420.17654 311.1844Q420.17654 310.5594 419.72342 310.1375Q419.2703 309.7 418.55154 309.7Q417.78592 309.7 417.3328 310.15314Q416.87967 310.60626 416.86404 311.41876L415.78592 311.3094Q415.8953 310.09064 416.61404 309.46564Q417.34842 308.825 418.5828 308.825Q419.81717 308.825 420.53592 309.5125Q421.25467 310.2 421.25467 311.21564Q421.25467 311.73126 421.03592 312.23126Q420.8328 312.71564 420.3328 313.27814Q419.84842 313.825 418.72342 314.77814Q417.7703 315.575 417.48904 315.8719Q417.22342 316.15314 417.05154 316.4344L421.2703 316.4344ZM422.72342 313.21564Q422.72342 311.6844 423.03592 310.7625Q423.34842 309.825 423.9578 309.325Q424.5828 308.825 425.5203 308.825Q426.2078 308.825 426.72342 309.10626Q427.25467 309.3875 427.59842 309.91876Q427.94217 310.4344 428.12967 311.1844Q428.31717 311.9344 428.31717 313.21564Q428.31717 314.73126 428.00467 315.65314Q427.7078 316.575 427.0828 317.09064Q426.47342 317.59064 425.5203 317.59064Q424.28592 317.59064 423.56717 316.7Q422.72342 315.6375 422.72342 313.21564ZM423.80154 313.21564Q423.80154 315.325 424.30154 316.02814Q424.80154 316.73126 425.5203 316.73126Q426.25467 316.73126 426.73904 316.02814Q427.23904 315.325 427.23904 313.21564Q427.23904 311.09064 426.73904 310.40314Q426.25467 309.7 425.50467 309.7Q424.78592 309.7 424.34842 310.3094Q423.80154 311.09064 423.80154 313.21564ZM429.72342 313.21564Q429.72342 311.6844 430.03592 310.7625Q430.34842 309.825 430.9578 309.325Q431.5828 308.825 432.5203 308.825Q433.2078 308.825 433.72342 309.10626Q434.25467 309.3875 434.59842 309.91876Q434.94217 310.4344 435.12967 311.1844Q435.31717 311.9344 435.31717 313.21564Q435.31717 314.73126 435.00467 315.65314Q434.7078 316.575 434.0828 317.09064Q433.47342 317.59064 432.5203 317.59064Q431.28592 317.59064 430.56717 316.7Q429.72342 315.6375 429.72342 313.21564ZM430.80154 313.21564Q430.80154 315.325 431.30154 316.02814Q431.80154 316.73126 432.5203 316.73126Q433.25467 316.73126 433.73904 316.02814Q434.23904 315.325 434.23904 313.21564Q434.23904 311.09064 433.73904 310.40314Q433.25467 309.7 432.50467 309.7Q431.78592 309.7 431.34842 310.3094Q430.80154 311.09064 430.80154 313.21564ZM436.31717 317.45L438.5828 314.21564L436.48904 311.23126L437.80154 311.23126L438.75467 312.6844Q439.0203 313.10626 439.19217 313.3875Q439.44217 312.9969 439.66092 312.7L440.7078 311.23126L441.97342 311.23126L439.81717 314.15314L442.12967 317.45L440.84842 317.45L439.56717 315.5125L439.22342 314.9969L437.5828 317.45L436.31717 317.45ZM447.2703 316.4344L447.2703 317.45L441.5828 317.45Q441.5828 317.075 441.7078 316.71564Q441.92654 316.1375 442.3953 315.575Q442.87967 315.0125 443.78592 314.27814Q445.19217 313.1219 445.67654 312.45Q446.17654 311.77814 446.17654 311.1844Q446.17654 310.5594 445.72342 310.1375Q445.2703 309.7 444.55154 309.7Q443.78592 309.7 443.3328 310.15314Q442.87967 310.60626 442.86404 311.41876L441.78592 311.3094Q441.8953 310.09064 442.61404 309.46564Q443.34842 308.825 444.5828 308.825Q445.81717 308.825 446.53592 309.5125Q447.25467 310.2 447.25467 311.21564Q447.25467 311.73126 447.03592 312.23126Q446.8328 312.71564 446.3328 313.27814Q445.84842 313.825 444.72342 314.77814Q443.7703 315.575 443.48904 315.8719Q443.22342 316.15314 443.05154 316.4344L447.2703 316.4344ZM448.72342 313.21564Q448.72342 311.6844 449.03592 310.7625Q449.34842 309.825 449.9578 309.325Q450.5828 308.825 451.5203 308.825Q452.2078 308.825 452.72342 309.10626Q453.25467 309.3875 453.59842 309.91876Q453.94217 310.4344 454.12967 311.1844Q454.31717 311.9344 454.31717 313.21564Q454.31717 314.73126 454.00467 315.65314Q453.7078 316.575 453.0828 317.09064Q452.47342 317.59064 451.5203 317.59064Q450.28592 317.59064 449.56717 316.7Q448.72342 315.6375 448.72342 313.21564ZM449.80154 313.21564Q449.80154 315.325 450.30154 316.02814Q450.80154 316.73126 451.5203 316.73126Q452.25467 316.73126 452.73904 316.02814Q453.23904 315.325 453.23904 313.21564Q453.23904 311.09064 452.73904 310.40314Q452.25467 309.7 451.50467 309.7Q450.78592 309.7 450.34842 310.3094Q449.80154 311.09064 449.80154 313.21564ZM455.72342 313.21564Q455.72342 311.6844 456.03592 310.7625Q456.34842 309.825 456.9578 309.325Q457.5828 308.825 458.5203 308.825Q459.2078 308.825 459.72342 309.10626Q460.25467 309.3875 460.59842 309.91876Q460.94217 310.4344 461.12967 311.1844Q461.31717 311.9344 461.31717 313.21564Q461.31717 314.73126 461.00467 315.65314Q460.7078 316.575 460.0828 317.09064Q459.47342 317.59064 458.5203 317.59064Q457.28592 317.59064 456.56717 316.7Q455.72342 315.6375 455.72342 313.21564ZM456.80154 313.21564Q456.80154 315.325 457.30154 316.02814Q457.80154 316.73126 458.5203 316.73126Q459.25467 316.73126 459.73904 316.02814Q460.23904 315.325 460.23904 313.21564Q460.23904 311.09064 459.73904 310.40314Q459.25467 309.7 458.50467 309.7Q457.78592 309.7 457.34842 310.3094Q456.80154 311.09064 456.80154 313.21564Z" fill-rule="nonzero"/><path fill="#4285f4" d="M208.5 56.916668C208.5 56.364384 208.94771 55.916668 209.5 55.916668L219.5 55.916668C220.05229 55.916668 220.5 56.364384 220.5 56.916668L220.5 66.916664C220.5 67.46895 220.05229 67.916664 219.5 67.916664L209.5 67.916664C208.94771 67.916664 208.5 67.46895 208.5 66.916664Z" fill-rule="nonzero"/><path fill="#ffffff" d="M231.60938 65.916664L231.60938 58.33854L228.78125 58.33854L228.78125 57.322914L235.59375 57.322914L235.59375 58.33854L232.75 58.33854L232.75 65.916664L231.60938 65.916664ZM240.54688 63.916664L241.64062 64.041664Q241.39062 64.99479 240.6875 65.52604Q239.98438 66.05729 238.90625 66.05729Q237.54688 66.05729 236.73438 65.21354Q235.9375 64.36979 235.9375 62.854164Q235.9375 61.291664 236.75 60.43229Q237.5625 59.55729 238.84375 59.55729Q240.09375 59.55729 240.875 60.40104Q241.67188 61.24479 241.67188 62.791664Q241.67188 62.885414 241.67188 63.072914L237.03125 63.072914Q237.09375 64.104164 237.60938 64.65104Q238.125 65.18229 238.90625 65.18229Q239.48438 65.18229 239.89062 64.885414Q240.3125 64.572914 240.54688 63.916664ZM237.09375 62.21354L240.5625 62.21354Q240.5 61.416664 240.17188 61.02604Q239.65625 60.416664 238.85938 60.416664Q238.125 60.416664 237.625 60.90104Q237.14062 61.385414 237.09375 62.21354ZM243.29688 65.916664L243.29688 59.697914L244.23438 59.697914L244.23438 60.572914Q244.92188 59.55729 246.21875 59.55729Q246.78125 59.55729 247.25 59.760414Q247.73438 59.96354 247.96875 60.291664Q248.20312 60.61979 248.29688 61.05729Q248.34375 61.354164 248.34375 62.08854L248.34375 65.916664L247.29688 65.916664L247.29688 62.135414Q247.29688 61.479164 247.17188 61.166664Q247.04688 60.854164 246.73438 60.666664Q246.42188 60.46354 246.0 60.46354Q245.32812 60.46354 244.82812 60.90104Q244.34375 61.322914 244.34375 62.510414L244.34375 65.916664L243.29688 65.916664ZM249.875 64.05729L250.90625 63.90104Q251.0 64.52604 251.39062 64.854164Q251.79688 65.18229 252.53125 65.18229Q253.25 65.18229 253.59375 64.90104Q253.95312 64.604164 253.95312 64.197914Q253.95312 63.83854 253.64062 63.635414Q253.42188 63.49479 252.5625 63.27604Q251.40625 62.979164 250.95312 62.77604Q250.51562 62.55729 250.28125 62.18229Q250.04688 61.80729 250.04688 61.33854Q250.04688 60.93229 250.23438 60.572914Q250.42188 60.21354 250.75 59.979164Q251.0 59.80729 251.42188 59.68229Q251.84375 59.55729 252.34375 59.55729Q253.0625 59.55729 253.60938 59.77604Q254.17188 59.979164 254.4375 60.33854Q254.70312 60.697914 254.79688 61.291664L253.76562 61.43229Q253.70312 60.96354 253.35938 60.697914Q253.03125 60.416664 252.40625 60.416664Q251.6875 60.416664 251.375 60.666664Q251.0625 60.90104 251.0625 61.229164Q251.0625 61.43229 251.1875 61.58854Q251.32812 61.760414 251.59375 61.86979Q251.75 61.93229 252.53125 62.135414Q253.65625 62.447914 254.09375 62.635414Q254.53125 62.822914 254.78125 63.18229Q255.03125 63.541664 255.03125 64.08854Q255.03125 64.61979 254.71875 65.08854Q254.42188 65.541664 253.84375 65.80729Q253.26562 66.05729 252.53125 66.05729Q251.3125 66.05729 250.67188 65.55729Q250.04688 65.041664 249.875 64.05729ZM256.90625 62.80729Q256.90625 61.072914 257.85938 60.24479Q258.65625 59.55729 259.8125 59.55729Q261.09375 59.55729 261.90625 60.40104Q262.73438 61.229164 262.73438 62.71354Q262.73438 63.916664 262.375 64.604164Q262.01562 65.291664 261.3125 65.68229Q260.625 66.05729 259.8125 66.05729Q258.51562 66.05729 257.70312 65.229164Q256.90625 64.385414 256.90625 62.80729ZM257.98438 62.80729Q257.98438 63.99479 258.5 64.58854Q259.03125 65.18229 259.8125 65.18229Q260.60938 65.18229 261.125 64.58854Q261.64062 63.99479 261.64062 62.77604Q261.64062 61.61979 261.10938 61.02604Q260.59375 60.43229 259.8125 60.43229Q259.03125 60.43229 258.5 61.02604Q257.98438 61.604164 257.98438 62.80729ZM264.28125 65.916664L264.28125 59.697914L265.23438 59.697914L265.23438 60.635414Q265.59375 59.979164 265.89062 59.77604Q266.20312 59.55729 266.57812 59.55729Q267.10938 59.55729 267.65625 59.885414L267.29688 60.86979Q266.90625 60.635414 266.53125 60.635414Q266.17188 60.635414 265.89062 60.854164Q265.625 61.05729 265.51562 61.43229Q265.32812 61.99479 265.32812 62.65104L265.32812 65.916664L264.28125 65.916664ZM268.42188 65.916664L268.42188 57.322914L271.39062 57.322914Q272.39062 57.322914 272.92188 57.447914Q273.65625 57.61979 274.17188 58.05729Q274.85938 58.635414 275.1875 59.541664Q275.53125 60.43229 275.53125 61.572914Q275.53125 62.55729 275.29688 63.30729Q275.07812 64.05729 274.71875 64.55729Q274.35938 65.05729 273.92188 65.33854Q273.5 65.61979 272.90625 65.77604Q272.3125 65.916664 271.53125 65.916664L268.42188 65.916664ZM269.5625 64.90104L271.39062 64.90104Q272.25 64.90104 272.73438 64.74479Q273.21875 64.58854 273.5 64.291664Q273.90625 63.90104 274.125 63.21354Q274.35938 62.52604 274.35938 61.55729Q274.35938 60.21354 273.90625 59.49479Q273.46875 58.760414 272.84375 58.510414Q272.375 58.33854 271.375 58.33854L269.5625 58.33854L269.5625 64.90104ZM276.90625 62.80729Q276.90625 61.072914 277.85938 60.24479Q278.65625 59.55729 279.8125 59.55729Q281.09375 59.55729 281.90625 60.40104Q282.73438 61.229164 282.73438 62.71354Q282.73438 63.916664 282.375 64.604164Q282.01562 65.291664 281.3125 65.68229Q280.625 66.05729 279.8125 66.05729Q278.51562 66.05729 277.70312 65.229164Q276.90625 64.385414 276.90625 62.80729ZM277.98438 62.80729Q277.98438 63.99479 278.5 64.58854Q279.03125 65.18229 279.8125 65.18229Q280.60938 65.18229 281.125 64.58854Q281.64062 63.99479 281.64062 62.77604Q281.64062 61.61979 281.10938 61.02604Q280.59375 60.43229 279.8125 60.43229Q279.03125 60.43229 278.5 61.02604Q277.98438 61.604164 277.98438 62.80729ZM286.59375 64.979164L286.75 65.90104Q286.29688 65.99479 285.95312 65.99479Q285.375 65.99479 285.0625 65.822914Q284.75 65.635414 284.60938 65.33854Q284.48438 65.041664 284.48438 64.08854L284.48438 60.510414L283.71875 60.510414L283.71875 59.697914L284.48438 59.697914L284.48438 58.15104L285.53125 57.52604L285.53125 59.697914L286.59375 59.697914L286.59375 60.510414L285.53125 60.510414L285.53125 64.15104Q285.53125 64.604164 285.57812 64.729164Q285.64062 64.854164 285.76562 64.93229Q285.89062 65.010414 286.125 65.010414Q286.3125 65.010414 286.59375 64.979164Z" fill-rule="nonzero"/><path fill="#ea4335" d="M302.5 56.916668C302.5 56.364384 302.94772 55.916668 303.5 55.916668L313.5 55.916668C314.05228 55.916668 314.5 56.364384 314.5 56.916668L314.5 66.916664C314.5 67.46895 314.05228 67.916664 313.5 67.916664L303.5 67.916664C302.94772 67.916664 302.5 67.46895 302.5 66.916664Z" fill-rule="nonzero"/><path fill="#ffffff" d="M323.04688 63.15104L324.10938 63.05729Q324.1875 63.71354 324.46875 64.11979Q324.75 64.52604 325.32812 64.791664Q325.92188 65.041664 326.65625 65.041664Q327.29688 65.041664 327.79688 64.854164Q328.29688 64.65104 328.53125 64.322914Q328.78125 63.979164 328.78125 63.58854Q328.78125 63.18229 328.54688 62.885414Q328.3125 62.572914 327.78125 62.36979Q327.42188 62.229164 326.23438 61.947914Q325.0625 61.666664 324.59375 61.416664Q323.96875 61.08854 323.67188 60.61979Q323.375 60.135414 323.375 59.541664Q323.375 58.90104 323.73438 58.33854Q324.10938 57.760414 324.8125 57.479164Q325.53125 57.18229 326.39062 57.18229Q327.34375 57.18229 328.07812 57.49479Q328.8125 57.791664 329.20312 58.40104Q329.59375 58.99479 329.625 59.74479L328.53125 59.822914Q328.4375 59.010414 327.92188 58.604164Q327.42188 58.18229 326.4375 58.18229Q325.40625 58.18229 324.9375 58.55729Q324.46875 58.93229 324.46875 59.46354Q324.46875 59.93229 324.79688 60.229164Q325.125 60.52604 326.5 60.83854Q327.89062 61.15104 328.40625 61.385414Q329.15625 61.74479 329.51562 62.27604Q329.875 62.791664 329.875 63.49479Q329.875 64.18229 329.48438 64.791664Q329.09375 65.385414 328.35938 65.729164Q327.625 66.05729 326.70312 66.05729Q325.53125 66.05729 324.73438 65.729164Q323.95312 65.385414 323.5 64.697914Q323.0625 64.010414 323.04688 63.15104ZM333.59375 64.979164L333.75 65.90104Q333.29688 65.99479 332.95312 65.99479Q332.375 65.99479 332.0625 65.822914Q331.75 65.635414 331.60938 65.33854Q331.48438 65.041664 331.48438 64.08854L331.48438 60.510414L330.71875 60.510414L330.71875 59.697914L331.48438 59.697914L331.48438 58.15104L332.53125 57.52604L332.53125 59.697914L333.59375 59.697914L333.59375 60.510414L332.53125 60.510414L332.53125 64.15104Q332.53125 64.604164 332.57812 64.729164Q332.64062 64.854164 332.76562 64.93229Q332.89062 65.010414 333.125 65.010414Q333.3125 65.010414 333.59375 64.979164ZM334.28125 65.916664L334.28125 59.697914L335.23438 59.697914L335.23438 60.635414Q335.59375 59.979164 335.89062 59.77604Q336.20312 59.55729 336.57812 59.55729Q337.10938 59.55729 337.65625 59.885414L337.29688 60.86979Q336.90625 60.635414 336.53125 60.635414Q336.17188 60.635414 335.89062 60.854164Q335.625 61.05729 335.51562 61.43229Q335.32812 61.99479 335.32812 62.65104L335.32812 65.916664L334.28125 65.916664ZM342.35938 65.15104Q341.76562 65.65104 341.21875 65.854164Q340.6875 66.05729 340.0625 66.05729Q339.03125 66.05729 338.48438 65.55729Q337.9375 65.05729 337.9375 64.27604Q337.9375 63.822914 338.14062 63.447914Q338.34375 63.05729 338.6875 62.83854Q339.03125 62.604164 339.45312 62.49479Q339.75 62.40104 340.39062 62.322914Q341.65625 62.18229 342.26562 61.96354Q342.26562 61.74479 342.26562 61.697914Q342.26562 61.041664 341.96875 60.77604Q341.5625 60.43229 340.76562 60.43229Q340.03125 60.43229 339.67188 60.697914Q339.3125 60.947914 339.14062 61.604164L338.10938 61.46354Q338.25 60.80729 338.57812 60.40104Q338.90625 59.99479 339.51562 59.77604Q340.125 59.55729 340.92188 59.55729Q341.71875 59.55729 342.21875 59.74479Q342.71875 59.93229 342.95312 60.21354Q343.1875 60.49479 343.28125 60.93229Q343.32812 61.197914 343.32812 61.90104L343.32812 63.30729Q343.32812 64.77604 343.39062 65.166664Q343.46875 65.55729 343.67188 65.916664L342.5625 65.916664Q342.40625 65.58854 342.35938 65.15104ZM342.26562 62.791664Q341.6875 63.02604 340.54688 63.197914Q339.89062 63.291664 339.625 63.416664Q339.35938 63.52604 339.20312 63.74479Q339.0625 63.96354 339.0625 64.24479Q339.0625 64.666664 339.375 64.947914Q339.70312 65.229164 340.3125 65.229164Q340.92188 65.229164 341.39062 64.96354Q341.875 64.697914 342.09375 64.229164Q342.26562 63.86979 342.26562 63.18229L342.26562 62.791664ZM344.875 64.05729L345.90625 63.90104Q346.0 64.52604 346.39062 64.854164Q346.79688 65.18229 347.53125 65.18229Q348.25 65.18229 348.59375 64.90104Q348.95312 64.604164 348.95312 64.197914Q348.95312 63.83854 348.64062 63.635414Q348.42188 63.49479 347.5625 63.27604Q346.40625 62.979164 345.95312 62.77604Q345.51562 62.55729 345.28125 62.18229Q345.04688 61.80729 345.04688 61.33854Q345.04688 60.93229 345.23438 60.572914Q345.42188 60.21354 345.75 59.979164Q346.0 59.80729 346.42188 59.68229Q346.84375 59.55729 347.34375 59.55729Q348.0625 59.55729 348.60938 59.77604Q349.17188 59.979164 349.4375 60.33854Q349.70312 60.697914 349.79688 61.291664L348.76562 61.43229Q348.70312 60.96354 348.35938 60.697914Q348.03125 60.416664 347.40625 60.416664Q346.6875 60.416664 346.375 60.666664Q346.0625 60.90104 346.0625 61.229164Q346.0625 61.43229 346.1875 61.58854Q346.32812 61.760414 346.59375 61.86979Q346.75 61.93229 347.53125 62.135414Q348.65625 62.447914 349.09375 62.635414Q349.53125 62.822914 349.78125 63.18229Q350.03125 63.541664 350.03125 64.08854Q350.03125 64.61979 349.71875 65.08854Q349.42188 65.541664 348.84375 65.80729Q348.26562 66.05729 347.53125 66.05729Q346.3125 66.05729 345.67188 65.55729Q345.04688 65.041664 344.875 64.05729ZM351.875 64.05729L352.90625 63.90104Q353.0 64.52604 353.39062 64.854164Q353.79688 65.18229 354.53125 65.18229Q355.25 65.18229 355.59375 64.90104Q355.95312 64.604164 355.95312 64.197914Q355.95312 63.83854 355.64062 63.635414Q355.42188 63.49479 354.5625 63.27604Q353.40625 62.979164 352.95312 62.77604Q352.51562 62.55729 352.28125 62.18229Q352.04688 61.80729 352.04688 61.33854Q352.04688 60.93229 352.23438 60.572914Q352.42188 60.21354 352.75 59.979164Q353.0 59.80729 353.42188 59.68229Q353.84375 59.55729 354.34375 59.55729Q355.0625 59.55729 355.60938 59.77604Q356.17188 59.979164 356.4375 60.33854Q356.70312 60.697914 356.79688 61.291664L355.76562 61.43229Q355.70312 60.96354 355.35938 60.697914Q355.03125 60.416664 354.40625 60.416664Q353.6875 60.416664 353.375 60.666664Q353.0625 60.90104 353.0625 61.229164Q353.0625 61.43229 353.1875 61.58854Q353.32812 61.760414 353.59375 61.86979Q353.75 61.93229 354.53125 62.135414Q355.65625 62.447914 356.09375 62.635414Q356.53125 62.822914 356.78125 63.18229Q357.03125 63.541664 357.03125 64.08854Q357.03125 64.61979 356.71875 65.08854Q356.42188 65.541664 355.84375 65.80729Q355.26562 66.05729 354.53125 66.05729Q353.3125 66.05729 352.67188 65.55729Q352.04688 65.041664 351.875 64.05729ZM363.54688 63.916664L364.64062 64.041664Q364.39062 64.99479 363.6875 65.52604Q362.98438 66.05729 361.90625 66.05729Q360.54688 66.05729 359.73438 65.21354Q358.9375 64.36979 358.9375 62.854164Q358.9375 61.291664 359.75 60.43229Q360.5625 59.55729 361.84375 59.55729Q363.09375 59.55729 363.875 60.40104Q364.67188 61.24479 364.67188 62.791664Q364.67188 62.885414 364.67188 63.072914L360.03125 63.072914Q360.09375 64.104164 360.60938 64.65104Q361.125 65.18229 361.90625 65.18229Q362.48438 65.18229 362.89062 64.885414Q363.3125 64.572914 363.54688 63.916664ZM360.09375 62.21354L363.5625 62.21354Q363.5 61.416664 363.17188 61.02604Q362.65625 60.416664 361.85938 60.416664Q361.125 60.416664 360.625 60.90104Q360.14062 61.385414 360.09375 62.21354ZM366.29688 65.916664L366.29688 59.697914L367.23438 59.697914L367.23438 60.572914Q367.92188 59.55729 369.21875 59.55729Q369.78125 59.55729 370.25 59.760414Q370.73438 59.96354 370.96875 60.291664Q371.20312 60.61979 371.29688 61.05729Q371.34375 61.354164 371.34375 62.08854L371.34375 65.916664L370.29688 65.916664L370.29688 62.135414Q370.29688 61.479164 370.17188 61.166664Q370.04688 60.854164 369.73438 60.666664Q369.42188 60.46354 369.0 60.46354Q368.32812 60.46354 367.82812 60.90104Q367.34375 61.322914 367.34375 62.510414L367.34375 65.916664L366.29688 65.916664ZM373.42188 65.916664L373.42188 57.322914L376.39062 57.322914Q377.39062 57.322914 377.92188 57.447914Q378.65625 57.61979 379.17188 58.05729Q379.85938 58.635414 380.1875 59.541664Q380.53125 60.43229 380.53125 61.572914Q380.53125 62.55729 380.29688 63.30729Q380.07812 64.05729 379.71875 64.55729Q379.35938 65.05729 378.92188 65.33854Q378.5 65.61979 377.90625 65.77604Q377.3125 65.916664 376.53125 65.916664L373.42188 65.916664ZM374.5625 64.90104L376.39062 64.90104Q377.25 64.90104 377.73438 64.74479Q378.21875 64.58854 378.5 64.291664Q378.90625 63.90104 379.125 63.21354Q379.35938 62.52604 379.35938 61.55729Q379.35938 60.21354 378.90625 59.49479Q378.46875 58.760414 377.84375 58.510414Q377.375 58.33854 376.375 58.33854L374.5625 58.33854L374.5625 64.90104ZM381.90625 62.80729Q381.90625 61.072914 382.85938 60.24479Q383.65625 59.55729 384.8125 59.55729Q386.09375 59.55729 386.90625 60.40104Q387.73438 61.229164 387.73438 62.71354Q387.73438 63.916664 387.375 64.604164Q387.01562 65.291664 386.3125 65.68229Q385.625 66.05729 384.8125 66.05729Q383.51562 66.05729 382.70312 65.229164Q381.90625 64.385414 381.90625 62.80729ZM382.98438 62.80729Q382.98438 63.99479 383.5 64.58854Q384.03125 65.18229 384.8125 65.18229Q385.60938 65.18229 386.125 64.58854Q386.64062 63.99479 386.64062 62.77604Q386.64062 61.61979 386.10938 61.02604Q385.59375 60.43229 384.8125 60.43229Q384.03125 60.43229 383.5 61.02604Q382.98438 61.604164 382.98438 62.80729ZM391.59375 64.979164L391.75 65.90104Q391.29688 65.99479 390.95312 65.99479Q390.375 65.99479 390.0625 65.822914Q389.75 65.635414 389.60938 65.33854Q389.48438 65.041664 389.48438 64.08854L389.48438 60.510414L388.71875 60.510414L388.71875 59.697914L389.48438 59.697914L389.48438 58.15104L390.53125 57.52604L390.53125 59.697914L391.59375 59.697914L391.59375 60.510414L390.53125 60.510414L390.53125 64.15104Q390.53125 64.604164 390.57812 64.729164Q390.64062 64.854164 390.76562 64.93229Q390.89062 65.010414 391.125 65.010414Q391.3125 65.010414 391.59375 64.979164Z" fill-rule="nonzero"/><path fill="#757575" d="M23.7375 37.55L23.7375 24.925L19.01875 24.925L19.01875 23.2375L30.3625 23.2375L30.3625 24.925L25.628124 24.925L25.628124 37.55L23.7375 37.55ZM31.8625 37.55L31.8625 23.2375L33.628124 23.2375L33.628124 28.3625Q34.8625 26.940624 36.7375 26.940624Q37.878124 26.940624 38.721874 27.39375Q39.58125 27.846874 39.940624 28.659374Q40.315624 29.45625 40.315624 30.971874L40.315624 37.55L38.565624 37.55L38.565624 30.971874Q38.565624 29.659374 37.9875 29.065624Q37.409374 28.45625 36.378124 28.45625Q35.596874 28.45625 34.89375 28.8625Q34.20625 29.26875 33.909374 29.971874Q33.628124 30.659374 33.628124 31.878124L33.628124 37.55L31.8625 37.55ZM48.971874 34.20625L50.784374 34.440624Q50.3625 36.01875 49.190624 36.909374Q48.034374 37.784374 46.221874 37.784374Q43.95625 37.784374 42.6125 36.39375Q41.284374 34.9875 41.284374 32.45625Q41.284374 29.83125 42.628124 28.39375Q43.971874 26.940624 46.128124 26.940624Q48.20625 26.940624 49.51875 28.3625Q50.846874 29.76875 50.846874 32.346874Q50.846874 32.503124 50.83125 32.815624L43.096874 32.815624Q43.190624 34.51875 44.065624 35.425Q44.940624 36.33125 46.2375 36.33125Q47.20625 36.33125 47.878124 35.83125Q48.565624 35.315624 48.971874 34.20625ZM43.190624 31.3625L48.9875 31.3625Q48.878124 30.065624 48.33125 29.409374Q47.4875 28.39375 46.14375 28.39375Q44.940624 28.39375 44.1125 29.20625Q43.284374 30.003124 43.190624 31.3625ZM60.4875 37.55L58.8625 37.55L58.8625 23.2375L60.6125 23.2375L60.6125 28.346874Q61.7375 26.940624 63.45625 26.940624Q64.40938 26.940624 65.26875 27.33125Q66.12813 27.721874 66.675 28.425Q67.22188 29.1125 67.53438 30.096874Q67.84688 31.08125 67.84688 32.20625Q67.84688 34.878124 66.53438 36.33125Q65.22188 37.784374 63.378124 37.784374Q61.534374 37.784374 60.4875 36.253124L60.4875 37.55ZM60.471874 32.284374Q60.471874 34.14375 60.971874 34.9875Q61.815624 36.33125 63.221874 36.33125Q64.37813 36.33125 65.20625 35.33125Q66.05 34.33125 66.05 32.346874Q66.05 30.315624 65.2375 29.3625Q64.44063 28.39375 63.3 28.39375Q62.14375 28.39375 61.3 29.39375Q60.471874 30.39375 60.471874 32.284374ZM76.97188 34.20625L78.78438 34.440624Q78.3625 36.01875 77.19063 36.909374Q76.03438 37.784374 74.22188 37.784374Q71.95625 37.784374 70.6125 36.39375Q69.28438 34.9875 69.28438 32.45625Q69.28438 29.83125 70.62813 28.39375Q71.97188 26.940624 74.12813 26.940624Q76.20625 26.940624 77.51875 28.3625Q78.84688 29.76875 78.84688 32.346874Q78.84688 32.503124 78.83125 32.815624L71.09688 32.815624Q71.19063 34.51875 72.06563 35.425Q72.94063 36.33125 74.2375 36.33125Q75.20625 36.33125 75.87813 35.83125Q76.56563 35.315624 76.97188 34.20625ZM71.19063 31.3625L76.9875 31.3625Q76.87813 30.065624 76.33125 29.409374Q75.4875 28.39375 74.14375 28.39375Q72.94063 28.39375 72.1125 29.20625Q71.28438 30.003124 71.19063 31.3625ZM80.8625 37.55L80.8625 27.175L82.45625 27.175L82.45625 28.659374Q83.59688 26.940624 85.75313 26.940624Q86.69063 26.940624 87.47188 27.284374Q88.26875 27.6125 88.65938 28.159374Q89.05 28.70625 89.20625 29.45625Q89.3 29.95625 89.3 31.175L89.3 37.55L87.53438 37.55L87.53438 31.2375Q87.53438 30.159374 87.33125 29.628124Q87.12813 29.096874 86.59688 28.784374Q86.08125 28.471874 85.37813 28.471874Q84.25313 28.471874 83.44063 29.190624Q82.62813 29.89375 82.62813 31.878124L82.62813 37.55L80.8625 37.55ZM97.64375 33.753124L99.3625 33.971874Q99.08125 35.76875 97.90938 36.784374Q96.75313 37.784374 95.05 37.784374Q92.925 37.784374 91.62813 36.39375Q90.33125 35.003124 90.33125 32.409374Q90.33125 30.721874 90.87813 29.471874Q91.44063 28.20625 92.58125 27.58125Q93.72188 26.940624 95.06563 26.940624Q96.75313 26.940624 97.81563 27.8Q98.89375 28.659374 99.20625 30.221874L97.4875 30.4875Q97.25313 29.440624 96.62813 28.925Q96.00313 28.39375 95.12813 28.39375Q93.8 28.39375 92.97188 29.346874Q92.14375 30.3 92.14375 32.346874Q92.14375 34.440624 92.94063 35.39375Q93.7375 36.33125 95.03438 36.33125Q96.06563 36.33125 96.75313 35.70625Q97.45625 35.065624 97.64375 33.753124ZM100.8625 37.55L100.8625 23.2375L102.62813 23.2375L102.62813 28.3625Q103.8625 26.940624 105.7375 26.940624Q106.87813 26.940624 107.72188 27.39375Q108.58125 27.846874 108.94063 28.659374Q109.31563 29.45625 109.31563 30.971874L109.31563 37.55L107.56563 37.55L107.56563 30.971874Q107.56563 29.659374 106.9875 29.065624Q106.40938 28.45625 105.37813 28.45625Q104.59688 28.45625 103.89375 28.8625Q103.20625 29.26875 102.90938 29.971874Q102.62813 30.659374 102.62813 31.878124L102.62813 37.55L100.8625 37.55ZM110.8625 37.55L110.8625 27.175L112.44063 27.175L112.44063 28.628124Q112.925 27.878124 113.7375 27.409374Q114.55 26.940624 115.58125 26.940624Q116.7375 26.940624 117.47188 27.425Q118.20625 27.89375 118.51875 28.753124Q119.75313 26.940624 121.72188 26.940624Q123.26875 26.940624 124.09688 27.8Q124.925 28.659374 124.925 30.425L124.925 37.55L123.175 37.55L123.175 31.01875Q123.175 29.95625 123.00313 29.503124Q122.83125 29.034374 122.37813 28.753124Q121.94063 28.471874 121.33125 28.471874Q120.2375 28.471874 119.50313 29.20625Q118.78438 29.925 118.78438 31.51875L118.78438 37.55L117.03438 37.55L117.03438 30.815624Q117.03438 29.64375 116.59688 29.065624Q116.175 28.471874 115.19063 28.471874Q114.45625 28.471874 113.81563 28.8625Q113.19063 29.253124 112.90938 30.003124Q112.62813 30.753124 112.62813 32.175L112.62813 37.55L110.8625 37.55ZM133.64375 36.26875Q132.65938 37.096874 131.75313 37.440624Q130.84688 37.784374 129.81563 37.784374Q128.1125 37.784374 127.19063 36.95625Q126.26875 36.1125 126.26875 34.815624Q126.26875 34.05 126.6125 33.425Q126.97188 32.8 127.53438 32.425Q128.09688 32.034374 128.8 31.83125Q129.31563 31.70625 130.3625 31.565624Q132.4875 31.315624 133.4875 30.971874Q133.50313 30.6125 133.50313 30.503124Q133.50313 29.440624 133.00313 28.9875Q132.33125 28.39375 131.00313 28.39375Q129.75313 28.39375 129.15938 28.83125Q128.58125 29.26875 128.3 30.378124L126.58125 30.14375Q126.81563 29.034374 127.34688 28.3625Q127.87813 27.675 128.89375 27.315624Q129.90938 26.940624 131.25313 26.940624Q132.58125 26.940624 133.40938 27.253124Q134.2375 27.565624 134.62813 28.05Q135.01875 28.51875 135.175 29.2375Q135.26875 29.690624 135.26875 30.8625L135.26875 33.20625Q135.26875 35.659374 135.37813 36.315624Q135.4875 36.95625 135.83125 37.55L133.9875 37.55Q133.72188 37.003124 133.64375 36.26875ZM133.4875 32.346874Q132.53438 32.7375 130.6125 33.003124Q129.53438 33.159374 129.08125 33.3625Q128.64375 33.55 128.39375 33.925Q128.14375 34.3 128.14375 34.76875Q128.14375 35.471874 128.675 35.940624Q129.20625 36.409374 130.2375 36.409374Q131.25313 36.409374 132.03438 35.971874Q132.83125 35.51875 133.20625 34.753124Q133.4875 34.14375 133.4875 32.9875L133.4875 32.346874ZM137.84688 37.55L137.84688 27.175L139.425 27.175L139.425 28.753124Q140.03438 27.64375 140.55 27.3Q141.06563 26.940624 141.675 26.940624Q142.56563 26.940624 143.4875 27.503124L142.87813 29.14375Q142.2375 28.753124 141.59688 28.753124Q141.01875 28.753124 140.55 29.1125Q140.09688 29.45625 139.89375 30.065624Q139.6125 31.003124 139.6125 32.1125L139.6125 37.55L137.84688 37.55ZM144.87813 37.55L144.87813 23.2375L146.64375 23.2375L146.64375 31.39375L150.8 27.175L153.06563 27.175L149.1125 31.01875L153.47188 37.55L151.3 37.55L147.87813 32.253124L146.64375 33.440624L146.64375 37.55L144.87813 37.55ZM154.15938 34.45625L155.90938 34.175Q156.05 35.221874 156.72188 35.784374Q157.39375 36.33125 158.59688 36.33125Q159.8 36.33125 160.37813 35.846874Q160.97188 35.346874 160.97188 34.690624Q160.97188 34.096874 160.45625 33.753124Q160.09688 33.51875 158.65938 33.159374Q156.72188 32.659374 155.97188 32.315624Q155.2375 31.95625 154.84688 31.33125Q154.45625 30.690624 154.45625 29.925Q154.45625 29.2375 154.76875 28.64375Q155.09688 28.05 155.64375 27.659374Q156.05 27.3625 156.75313 27.159374Q157.47188 26.940624 158.28438 26.940624Q159.50313 26.940624 160.425 27.3Q161.34688 27.64375 161.78438 28.253124Q162.22188 28.846874 162.39375 29.846874L160.675 30.08125Q160.55 29.284374 159.9875 28.846874Q159.425 28.39375 158.40938 28.39375Q157.19063 28.39375 156.675 28.8Q156.15938 29.190624 156.15938 29.721874Q156.15938 30.065624 156.37813 30.346874Q156.58125 30.628124 157.05 30.815624Q157.31563 30.909374 158.59688 31.253124Q160.47188 31.753124 161.20625 32.08125Q161.94063 32.39375 162.3625 33.003124Q162.78438 33.596874 162.78438 34.503124Q162.78438 35.378124 162.26875 36.159374Q161.75313 36.940624 160.78438 37.3625Q159.81563 37.784374 158.59688 37.784374Q156.58125 37.784374 155.51875 36.940624Q154.45625 36.096874 154.15938 34.45625ZM170.22188 32.3625Q170.22188 29.4875 171.81563 28.096874Q173.15938 26.940624 175.08125 26.940624Q177.22188 26.940624 178.56563 28.346874Q179.925 29.753124 179.925 32.221874Q179.925 34.221874 179.33125 35.378124Q178.7375 36.51875 177.58125 37.159374Q176.44063 37.784374 175.08125 37.784374Q172.89375 37.784374 171.55 36.39375Q170.22188 34.9875 170.22188 32.3625ZM172.01875 32.3625Q172.01875 34.3625 172.87813 35.346874Q173.75313 36.33125 175.08125 36.33125Q176.39375 36.33125 177.25313 35.346874Q178.12813 34.346874 178.12813 32.3Q178.12813 30.378124 177.25313 29.39375Q176.37813 28.39375 175.08125 28.39375Q173.75313 28.39375 172.87813 29.39375Q172.01875 30.378124 172.01875 32.3625ZM182.28438 37.55L182.28438 28.55L180.7375 28.55L180.7375 27.175L182.28438 27.175L182.28438 26.08125Q182.28438 25.034374 182.47188 24.51875Q182.72188 23.83125 183.3625 23.409374Q184.00313 22.9875 185.15938 22.9875Q185.90938 22.9875 186.8 23.159374L186.53438 24.690624Q185.9875 24.596874 185.50313 24.596874Q184.70625 24.596874 184.3625 24.940624Q184.03438 25.284374 184.03438 26.221874L184.03438 27.175L186.06563 27.175L186.06563 28.55L184.03438 28.55L184.03438 37.55L182.28438 37.55ZM197.7375 37.55L197.7375 24.925L193.01875 24.925L193.01875 23.2375L204.3625 23.2375L204.3625 24.925L199.62813 24.925L199.62813 37.55L197.7375 37.55ZM212.97188 34.20625L214.78438 34.440624Q214.3625 36.01875 213.19063 36.909374Q212.03438 37.784374 210.22188 37.784374Q207.95625 37.784374 206.6125 36.39375Q205.28438 34.9875 205.28438 32.45625Q205.28438 29.83125 206.62813 28.39375Q207.97188 26.940624 210.12813 26.940624Q212.20625 26.940624 213.51875 28.3625Q214.84688 29.76875 214.84688 32.346874Q214.84688 32.503124 214.83125 32.815624L207.09688 32.815624Q207.19063 34.51875 208.06563 35.425Q208.94063 36.33125 210.2375 36.33125Q211.20625 36.33125 211.87813 35.83125Q212.56563 35.315624 212.97188 34.20625ZM207.19063 31.3625L212.9875 31.3625Q212.87813 30.065624 212.33125 29.409374Q211.4875 28.39375 210.14375 28.39375Q208.94063 28.39375 208.1125 29.20625Q207.28438 30.003124 207.19063 31.3625ZM216.8625 37.55L216.8625 27.175L218.45625 27.175L218.45625 28.659374Q219.59688 26.940624 221.75313 26.940624Q222.69063 26.940624 223.47188 27.284374Q224.26875 27.6125 224.65938 28.159374Q225.05 28.70625 225.20625 29.45625Q225.3 29.95625 225.3 31.175L225.3 37.55L223.53438 37.55L223.53438 31.2375Q223.53438 30.159374 223.33125 29.628124Q223.12813 29.096874 222.59688 28.784374Q222.08125 28.471874 221.37813 28.471874Q220.25313 28.471874 219.44063 29.190624Q218.62813 29.89375 218.62813 31.878124L218.62813 37.55L216.8625 37.55ZM226.15938 34.45625L227.90938 34.175Q228.05 35.221874 228.72188 35.784374Q229.39375 36.33125 230.59688 36.33125Q231.8 36.33125 232.37813 35.846874Q232.97188 35.346874 232.97188 34.690624Q232.97188 34.096874 232.45625 33.753124Q232.09688 33.51875 230.65938 33.159374Q228.72188 32.659374 227.97188 32.315624Q227.2375 31.95625 226.84688 31.33125Q226.45625 30.690624 226.45625 29.925Q226.45625 29.2375 226.76875 28.64375Q227.09688 28.05 227.64375 27.659374Q228.05 27.3625 228.75313 27.159374Q229.47188 26.940624 230.28438 26.940624Q231.50313 26.940624 232.425 27.3Q233.34688 27.64375 233.78438 28.253124Q234.22188 28.846874 234.39375 29.846874L232.675 30.08125Q232.55 29.284374 231.9875 28.846874Q231.425 28.39375 230.40938 28.39375Q229.19063 28.39375 228.675 28.8Q228.15938 29.190624 228.15938 29.721874Q228.15938 30.065624 228.37813 30.346874Q228.58125 30.628124 229.05 30.815624Q229.31563 30.909374 230.59688 31.253124Q232.47188 31.753124 233.20625 32.08125Q233.94063 32.39375 234.3625 33.003124Q234.78438 33.596874 234.78438 34.503124Q234.78438 35.378124 234.26875 36.159374Q233.75313 36.940624 232.78438 37.3625Q231.81563 37.784374 230.59688 37.784374Q228.58125 37.784374 227.51875 36.940624Q226.45625 36.096874 226.15938 34.45625ZM236.22188 32.3625Q236.22188 29.4875 237.81563 28.096874Q239.15938 26.940624 241.08125 26.940624Q243.22188 26.940624 244.56563 28.346874Q245.925 29.753124 245.925 32.221874Q245.925 34.221874 245.33125 35.378124Q244.7375 36.51875 243.58125 37.159374Q242.44063 37.784374 241.08125 37.784374Q238.89375 37.784374 237.55 36.39375Q236.22188 34.9875 236.22188 32.3625ZM238.01875 32.3625Q238.01875 34.3625 238.87813 35.346874Q239.75313 36.33125 241.08125 36.33125Q242.39375 36.33125 243.25313 35.346874Q244.12813 34.346874 244.12813 32.3Q244.12813 30.378124 243.25313 29.39375Q242.37813 28.39375 241.08125 28.39375Q239.75313 28.39375 238.87813 29.39375Q238.01875 30.378124 238.01875 32.3625ZM247.84688 37.55L247.84688 27.175L249.425 27.175L249.425 28.753124Q250.03438 27.64375 250.55 27.3Q251.06563 26.940624 251.675 26.940624Q252.56563 26.940624 253.4875 27.503124L252.87813 29.14375Q252.2375 28.753124 251.59688 28.753124Q251.01875 28.753124 250.55 29.1125Q250.09688 29.45625 249.89375 30.065624Q249.6125 31.003124 249.6125 32.1125L249.6125 37.55L247.84688 37.55ZM255.09688 37.55L255.09688 23.2375L260.01874 23.2375Q261.6906 23.2375 262.58124 23.440624Q263.8 23.721874 264.675 24.45625Q265.8 25.425 266.3625 26.909374Q266.925 28.39375 266.925 30.315624Q266.925 31.940624 266.55 33.20625Q266.175 34.45625 265.5656 35.284374Q264.97186 36.1125 264.26874 36.596874Q263.5656 37.065624 262.5656 37.315624Q261.5656 37.55 260.2531 37.55L255.09688 37.55ZM256.9875 35.8625L260.05 35.8625Q261.45624 35.8625 262.2531 35.596874Q263.0656 35.33125 263.55 34.846874Q264.22186 34.175 264.59686 33.05Q264.97186 31.909374 264.97186 30.284374Q264.97186 28.034374 264.2375 26.83125Q263.5031 25.628124 262.4406 25.221874Q261.6906 24.925 260.0031 24.925L256.9875 24.925L256.9875 35.8625ZM268.22186 32.3625Q268.22186 29.4875 269.8156 28.096874Q271.15936 26.940624 273.08124 26.940624Q275.22186 26.940624 276.5656 28.346874Q277.925 29.753124 277.925 32.221874Q277.925 34.221874 277.33124 35.378124Q276.7375 36.51875 275.58124 37.159374Q274.4406 37.784374 273.08124 37.784374Q270.89374 37.784374 269.55 36.39375Q268.22186 34.9875 268.22186 32.3625ZM270.01874 32.3625Q270.01874 34.3625 270.8781 35.346874Q271.7531 36.33125 273.08124 36.33125Q274.39374 36.33125 275.2531 35.346874Q276.1281 34.346874 276.1281 32.3Q276.1281 30.378124 275.2531 29.39375Q274.3781 28.39375 273.08124 28.39375Q271.7531 28.39375 270.8781 29.39375Q270.01874 30.378124 270.01874 32.3625ZM283.70624 35.971874L283.95624 37.534374Q283.22186 37.690624 282.6281 37.690624Q281.675 37.690624 281.14374 37.39375Q280.6281 37.08125 280.40936 36.596874Q280.1906 36.096874 280.1906 34.51875L280.1906 28.55L278.90936 28.55L278.90936 27.175L280.1906 27.175L280.1906 24.6125L281.9406 23.55L281.9406 27.175L283.70624 27.175L283.70624 28.55L281.9406 28.55L281.9406 34.6125Q281.9406 35.3625 282.03436 35.58125Q282.1281 35.784374 282.33124 35.925Q282.55 36.05 282.9406 36.05Q283.22186 36.05 283.70624 35.971874ZM298.64374 36.26875Q297.65936 37.096874 296.7531 37.440624Q295.84686 37.784374 294.8156 37.784374Q293.1125 37.784374 292.1906 36.95625Q291.26874 36.1125 291.26874 34.815624Q291.26874 34.05 291.6125 33.425Q291.97186 32.8 292.53436 32.425Q293.09686 32.034374 293.8 31.83125Q294.3156 31.70625 295.3625 31.565624Q297.4875 31.315624 298.4875 30.971874Q298.5031 30.6125 298.5031 30.503124Q298.5031 29.440624 298.0031 28.9875Q297.33124 28.39375 296.0031 28.39375Q294.7531 28.39375 294.15936 28.83125Q293.58124 29.26875 293.3 30.378124L291.58124 30.14375Q291.8156 29.034374 292.34686 28.3625Q292.8781 27.675 293.89374 27.315624Q294.90936 26.940624 296.2531 26.940624Q297.58124 26.940624 298.40936 27.253124Q299.2375 27.565624 299.6281 28.05Q300.01874 28.51875 300.175 29.2375Q300.26874 29.690624 300.26874 30.8625L300.26874 33.20625Q300.26874 35.659374 300.3781 36.315624Q300.4875 36.95625 300.83124 37.55L298.9875 37.55Q298.72186 37.003124 298.64374 36.26875ZM298.4875 32.346874Q297.53436 32.7375 295.6125 33.003124Q294.53436 33.159374 294.08124 33.3625Q293.64374 33.55 293.39374 33.925Q293.14374 34.3 293.14374 34.76875Q293.14374 35.471874 293.675 35.940624Q294.20624 36.409374 295.2375 36.409374Q296.2531 36.409374 297.03436 35.971874Q297.83124 35.51875 298.20624 34.753124Q298.4875 34.14375 298.4875 32.9875L298.4875 32.346874ZM302.8625 37.55L302.8625 27.175L304.45624 27.175L304.45624 28.659374Q305.59686 26.940624 307.7531 26.940624Q308.6906 26.940624 309.47186 27.284374Q310.26874 27.6125 310.65936 28.159374Q311.05 28.70625 311.20624 29.45625Q311.3 29.95625 311.3 31.175L311.3 37.55L309.53436 37.55L309.53436 31.2375Q309.53436 30.159374 309.33124 29.628124Q309.1281 29.096874 308.59686 28.784374Q308.08124 28.471874 307.3781 28.471874Q306.2531 28.471874 305.4406 29.190624Q304.6281 29.89375 304.6281 31.878124L304.6281 37.55L302.8625 37.55ZM319.59686 37.55L319.59686 36.2375Q318.6125 37.784374 316.6906 37.784374Q315.45624 37.784374 314.40936 37.096874Q313.3781 36.409374 312.8 35.190624Q312.2375 33.971874 312.2375 32.378124Q312.2375 30.815624 312.7531 29.55Q313.26874 28.284374 314.3 27.6125Q315.34686 26.940624 316.6125 26.940624Q317.55 26.940624 318.28436 27.346874Q319.01874 27.7375 319.4875 28.3625L319.4875 23.2375L321.22186 23.2375L321.22186 37.55L319.59686 37.55ZM314.03436 32.378124Q314.03436 34.3625 314.8781 35.346874Q315.72186 36.33125 316.8625 36.33125Q318.01874 36.33125 318.8156 35.39375Q319.6281 34.45625 319.6281 32.51875Q319.6281 30.39375 318.8 29.39375Q317.9875 28.39375 316.78436 28.39375Q315.6125 28.39375 314.8156 29.3625Q314.03436 30.315624 314.03436 32.378124ZM329.45624 32.95625L331.2375 32.8Q331.3625 33.8625 331.8156 34.55Q332.28436 35.2375 333.2531 35.675Q334.2375 36.096874 335.47186 36.096874Q336.55 36.096874 337.3781 35.784374Q338.20624 35.45625 338.6125 34.89375Q339.01874 34.33125 339.01874 33.659374Q339.01874 32.9875 338.6281 32.4875Q338.2375 31.9875 337.34686 31.64375Q336.76874 31.409374 334.78436 30.940624Q332.8156 30.471874 332.03436 30.05Q331.0031 29.51875 330.5031 28.721874Q330.0031 27.925 330.0031 26.940624Q330.0031 25.846874 330.6125 24.909374Q331.22186 23.971874 332.40936 23.4875Q333.59686 22.9875 335.03436 22.9875Q336.6281 22.9875 337.84686 23.503124Q339.0656 24.01875 339.70624 25.01875Q340.3625 26.003124 340.40936 27.26875L338.59686 27.409374Q338.45624 26.05 337.6125 25.3625Q336.76874 24.659374 335.1125 24.659374Q333.39374 24.659374 332.59686 25.3Q331.8156 25.925 331.8156 26.8Q331.8156 27.58125 332.3781 28.08125Q332.925 28.58125 335.2375 29.096874Q337.55 29.6125 338.40936 30.003124Q339.65936 30.58125 340.2531 31.471874Q340.84686 32.346874 340.84686 33.503124Q340.84686 34.64375 340.1906 35.659374Q339.53436 36.675 338.3 37.2375Q337.08124 37.8 335.55 37.8Q333.6125 37.8 332.3 37.2375Q330.9875 36.659374 330.2375 35.51875Q329.4875 34.378124 329.45624 32.95625ZM346.70624 35.971874L346.95624 37.534374Q346.22186 37.690624 345.6281 37.690624Q344.675 37.690624 344.14374 37.39375Q343.6281 37.08125 343.40936 36.596874Q343.1906 36.096874 343.1906 34.51875L343.1906 28.55L341.90936 28.55L341.90936 27.175L343.1906 27.175L343.1906 24.6125L344.9406 23.55L344.9406 27.175L346.70624 27.175L346.70624 28.55L344.9406 28.55L344.9406 34.6125Q344.9406 35.3625 345.03436 35.58125Q345.1281 35.784374 345.33124 35.925Q345.55 36.05 345.9406 36.05Q346.22186 36.05 346.70624 35.971874ZM348.84686 37.55L348.84686 27.175L350.425 27.175L350.425 28.753124Q351.03436 27.64375 351.55 27.3Q352.0656 26.940624 352.675 26.940624Q353.5656 26.940624 354.4875 27.503124L353.8781 29.14375Q353.2375 28.753124 352.59686 28.753124Q352.01874 28.753124 351.55 29.1125Q351.09686 29.45625 350.89374 30.065624Q350.6125 31.003124 350.6125 32.1125L350.6125 37.55L348.84686 37.55ZM362.64374 36.26875Q361.65936 37.096874 360.7531 37.440624Q359.84686 37.784374 358.8156 37.784374Q357.1125 37.784374 356.1906 36.95625Q355.26874 36.1125 355.26874 34.815624Q355.26874 34.05 355.6125 33.425Q355.97186 32.8 356.53436 32.425Q357.09686 32.034374 357.8 31.83125Q358.3156 31.70625 359.3625 31.565624Q361.4875 31.315624 362.4875 30.971874Q362.5031 30.6125 362.5031 30.503124Q362.5031 29.440624 362.0031 28.9875Q361.33124 28.39375 360.0031 28.39375Q358.7531 28.39375 358.15936 28.83125Q357.58124 29.26875 357.3 30.378124L355.58124 30.14375Q355.8156 29.034374 356.34686 28.3625Q356.8781 27.675 357.89374 27.315624Q358.90936 26.940624 360.2531 26.940624Q361.58124 26.940624 362.40936 27.253124Q363.2375 27.565624 363.6281 28.05Q364.01874 28.51875 364.175 29.2375Q364.26874 29.690624 364.26874 30.8625L364.26874 33.20625Q364.26874 35.659374 364.3781 36.315624Q364.4875 36.95625 364.83124 37.55L362.9875 37.55Q362.72186 37.003124 362.64374 36.26875ZM362.4875 32.346874Q361.53436 32.7375 359.6125 33.003124Q358.53436 33.159374 358.08124 33.3625Q357.64374 33.55 357.39374 33.925Q357.14374 34.3 357.14374 34.76875Q357.14374 35.471874 357.675 35.940624Q358.20624 36.409374 359.2375 36.409374Q360.2531 36.409374 361.03436 35.971874Q361.83124 35.51875 362.20624 34.753124Q362.4875 34.14375 362.4875 32.9875L362.4875 32.346874ZM366.15936 34.45625L367.90936 34.175Q368.05 35.221874 368.72186 35.784374Q369.39374 36.33125 370.59686 36.33125Q371.8 36.33125 372.3781 35.846874Q372.97186 35.346874 372.97186 34.690624Q372.97186 34.096874 372.45624 33.753124Q372.09686 33.51875 370.65936 33.159374Q368.72186 32.659374 367.97186 32.315624Q367.2375 31.95625 366.84686 31.33125Q366.45624 30.690624 366.45624 29.925Q366.45624 29.2375 366.76874 28.64375Q367.09686 28.05 367.64374 27.659374Q368.05 27.3625 368.7531 27.159374Q369.47186 26.940624 370.28436 26.940624Q371.5031 26.940624 372.425 27.3Q373.34686 27.64375 373.78436 28.253124Q374.22186 28.846874 374.39374 29.846874L372.675 30.08125Q372.55 29.284374 371.9875 28.846874Q371.425 28.39375 370.40936 28.39375Q369.1906 28.39375 368.675 28.8Q368.15936 29.190624 368.15936 29.721874Q368.15936 30.065624 368.3781 30.346874Q368.58124 30.628124 369.05 30.815624Q369.3156 30.909374 370.59686 31.253124Q372.47186 31.753124 373.20624 32.08125Q373.9406 32.39375 374.3625 33.003124Q374.78436 33.596874 374.78436 34.503124Q374.78436 35.378124 374.26874 36.159374Q373.7531 36.940624 372.78436 37.3625Q371.8156 37.784374 370.59686 37.784374Q368.58124 37.784374 367.51874 36.940624Q366.45624 36.096874 366.15936 34.45625ZM376.15936 34.45625L377.90936 34.175Q378.05 35.221874 378.72186 35.784374Q379.39374 36.33125 380.59686 36.33125Q381.8 36.33125 382.3781 35.846874Q382.97186 35.346874 382.97186 34.690624Q382.97186 34.096874 382.45624 33.753124Q382.09686 33.51875 380.65936 33.159374Q378.72186 32.659374 377.97186 32.315624Q377.2375 31.95625 376.84686 31.33125Q376.45624 30.690624 376.45624 29.925Q376.45624 29.2375 376.76874 28.64375Q377.09686 28.05 377.64374 27.659374Q378.05 27.3625 378.7531 27.159374Q379.47186 26.940624 380.28436 26.940624Q381.5031 26.940624 382.425 27.3Q383.34686 27.64375 383.78436 28.253124Q384.22186 28.846874 384.39374 29.846874L382.675 30.08125Q382.55 29.284374 381.9875 28.846874Q381.425 28.39375 380.40936 28.39375Q379.1906 28.39375 378.675 28.8Q378.15936 29.190624 378.15936 29.721874Q378.15936 30.065624 378.3781 30.346874Q378.58124 30.628124 379.05 30.815624Q379.3156 30.909374 380.59686 31.253124Q382.47186 31.753124 383.20624 32.08125Q383.9406 32.39375 384.3625 33.003124Q384.78436 33.596874 384.78436 34.503124Q384.78436 35.378124 384.26874 36.159374Q383.7531 36.940624 382.78436 37.3625Q381.8156 37.784374 380.59686 37.784374Q378.58124 37.784374 377.51874 36.940624Q376.45624 36.096874 376.15936 34.45625ZM393.97186 34.20625L395.78436 34.440624Q395.3625 36.01875 394.1906 36.909374Q393.03436 37.784374 391.22186 37.784374Q388.95624 37.784374 387.6125 36.39375Q386.28436 34.9875 386.28436 32.45625Q386.28436 29.83125 387.6281 28.39375Q388.97186 26.940624 391.1281 26.940624Q393.20624 26.940624 394.51874 28.3625Q395.84686 29.76875 395.84686 32.346874Q395.84686 32.503124 395.83124 32.815624L388.09686 32.815624Q388.1906 34.51875 389.0656 35.425Q389.9406 36.33125 391.2375 36.33125Q392.20624 36.33125 392.8781 35.83125Q393.5656 35.315624 393.97186 34.20625ZM388.1906 31.3625L393.9875 31.3625Q393.8781 30.065624 393.33124 29.409374Q392.4875 28.39375 391.14374 28.39375Q389.9406 28.39375 389.1125 29.20625Q388.28436 30.003124 388.1906 31.3625ZM397.8625 37.55L397.8625 27.175L399.45624 27.175L399.45624 28.659374Q400.59686 26.940624 402.7531 26.940624Q403.6906 26.940624 404.47186 27.284374Q405.26874 27.6125 405.65936 28.159374Q406.05 28.70625 406.20624 29.45625Q406.3 29.95625 406.3 31.175L406.3 37.55L404.53436 37.55L404.53436 31.2375Q404.53436 30.159374 404.33124 29.628124Q404.1281 29.096874 403.59686 28.784374Q403.08124 28.471874 402.3781 28.471874Q401.2531 28.471874 400.4406 29.190624Q399.6281 29.89375 399.6281 31.878124L399.6281 37.55L397.8625 37.55ZM408.09686 37.55L408.09686 23.2375L413.01874 23.2375Q414.6906 23.2375 415.58124 23.440624Q416.8 23.721874 417.675 24.45625Q418.8 25.425 419.3625 26.909374Q419.925 28.39375 419.925 30.315624Q419.925 31.940624 419.55 33.20625Q419.175 34.45625 418.5656 35.284374Q417.97186 36.1125 417.26874 36.596874Q416.5656 37.065624 415.5656 37.315624Q414.5656 37.55 413.2531 37.55L408.09686 37.55ZM409.9875 35.8625L413.05 35.8625Q414.45624 35.8625 415.2531 35.596874Q416.0656 35.33125 416.55 34.846874Q417.22186 34.175 417.59686 33.05Q417.97186 31.909374 417.97186 30.284374Q417.97186 28.034374 417.2375 26.83125Q416.5031 25.628124 415.4406 25.221874Q414.6906 24.925 413.0031 24.925L409.9875 24.925L409.9875 35.8625ZM421.22186 32.3625Q421.22186 29.4875 422.8156 28.096874Q424.15936 26.940624 426.08124 26.940624Q428.22186 26.940624 429.5656 28.346874Q430.925 29.753124 430.925 32.221874Q430.925 34.221874 430.33124 35.378124Q429.7375 36.51875 428.58124 37.159374Q427.4406 37.784374 426.08124 37.784374Q423.89374 37.784374 422.55 36.39375Q421.22186 34.9875 421.22186 32.3625ZM423.01874 32.3625Q423.01874 34.3625 423.8781 35.346874Q424.7531 36.33125 426.08124 36.33125Q427.39374 36.33125 428.2531 35.346874Q429.1281 34.346874 429.1281 32.3Q429.1281 30.378124 428.2531 29.39375Q427.3781 28.39375 426.08124 28.39375Q424.7531 28.39375 423.8781 29.39375Q423.01874 30.378124 423.01874 32.3625ZM436.70624 35.971874L436.95624 37.534374Q436.22186 37.690624 435.6281 37.690624Q434.675 37.690624 434.14374 37.39375Q433.6281 37.08125 433.40936 36.596874Q433.1906 36.096874 433.1906 34.51875L433.1906 28.55L431.90936 28.55L431.90936 27.175L433.1906 27.175L433.1906 24.6125L434.9406 23.55L434.9406 27.175L436.70624 27.175L436.70624 28.55L434.9406 28.55L434.9406 34.6125Q434.9406 35.3625 435.03436 35.58125Q435.1281 35.784374 435.33124 35.925Q435.55 36.05 435.9406 36.05Q436.22186 36.05 436.70624 35.971874Z" fill-rule="nonzero"/></svg>